
<svg width="247pt" height="906pt"
 viewBox="0.00 0.00 247.00 906.00" xmlns="http://www.w3.org/2000/svg" xmlns:xlink="http://www.w3.org/1999/xlink">
<g id="graph0" class="graph" transform="scale(1 1) rotate(0) translate(4 902)">
<title>%3</title>
<polygon fill="white" stroke="none" points="-4,4 -4,-902 243,-902 243,4 -4,4"/>
<!-- sil -->
<g id="node1" class="node"><title>sil</title>
<polygon fill="pink" stroke="pink" points="115,-825.68 42.8542,-701.66 187.146,-701.66 115,-825.68"/>
<text text-anchor="middle" x="115" y="-755.6" font-family="Times,serif" font-size="14.00">Spark</text>
<text text-anchor="middle" x="115" y="-738.8" font-family="Times,serif" font-size="14.00">Image</text>
<text text-anchor="middle" x="115" y="-722" font-family="Times,serif" font-size="14.00">Layer</text>
</g>
<!-- group -->
<g id="node2" class="node"><title>group</title>
<ellipse fill="steelblue" stroke="steelblue" cx="115" cy="-594" rx="58.0783" ry="29.3315"/>
<text text-anchor="middle" x="115" y="-598.2" font-family="Times,serif" font-size="14.00">Segment</text>
<text text-anchor="middle" x="115" y="-581.4" font-family="Times,serif" font-size="14.00">Superpixels</text>
</g>
<!-- sil&#45;&gt;group -->
<g id="edge1" class="edge"><title>sil&#45;&gt;group</title>
<path fill="none" stroke="black" d="M115,-701.442C115,-680.359 115,-654.717 115,-633.883"/>
<polygon fill="black" stroke="black" points="118.5,-633.781 115,-623.781 111.5,-633.781 118.5,-633.781"/>
</g>
<!-- tracks -->
<g id="node3" class="node"><title>tracks</title>
<ellipse fill="lightgreen" stroke="lightgreen" cx="51" cy="-486" rx="51.1726" ry="41.0911"/>
<text text-anchor="middle" x="51" y="-498.6" font-family="Times,serif" font-size="14.00">Segment</text>
<text text-anchor="middle" x="51" y="-481.8" font-family="Times,serif" font-size="14.00">Tissue</text>
<text text-anchor="middle" x="51" y="-465" font-family="Times,serif" font-size="14.00">Structures</text>
</g>
<!-- group&#45;&gt;tracks -->
<g id="edge2" class="edge"><title>group&#45;&gt;tracks</title>
<path fill="none" stroke="black" d="M98.5184,-565.702C92.3206,-555.437 85.0979,-543.475 78.1825,-532.021"/>
<polygon fill="black" stroke="black" points="81.1412,-530.15 72.9762,-523.398 75.1487,-533.768 81.1412,-530.15"/>
</g>
<!-- background -->
<g id="node4" class="node"><title>background</title>
<ellipse fill="lightgreen" stroke="lightgreen" cx="180" cy="-486" rx="59.5472" ry="29.3315"/>
<text text-anchor="middle" x="180" y="-490.2" font-family="Times,serif" font-size="14.00">Segment</text>
<text text-anchor="middle" x="180" y="-473.4" font-family="Times,serif" font-size="14.00">Background</text>
</g>
<!-- group&#45;&gt;background -->
<g id="edge3" class="edge"><title>group&#45;&gt;background</title>
<path fill="none" stroke="black" d="M131.739,-565.702C139.638,-552.821 149.177,-537.266 157.68,-523.398"/>
<polygon fill="black" stroke="black" points="160.848,-524.928 163.092,-514.574 154.88,-521.269 160.848,-524.928"/>
</g>
<!-- measure -->
<g id="node5" class="node"><title>measure</title>
<polygon fill="lightyellow" stroke="lightyellow" points="83.1453,-407.602 18.8547,-407.602 18.8547,-366.398 83.1453,-366.398 83.1453,-407.602"/>
<text text-anchor="middle" x="51" y="-391.2" font-family="Times,serif" font-size="14.00">Measure</text>
<text text-anchor="middle" x="51" y="-374.4" font-family="Times,serif" font-size="14.00">Position</text>
</g>
<!-- tracks&#45;&gt;measure -->
<g id="edge4" class="edge"><title>tracks&#45;&gt;measure</title>
<path fill="none" stroke="black" d="M51,-444.425C51,-435.519 51,-426.245 51,-417.851"/>
<polygon fill="black" stroke="black" points="54.5001,-417.783 51,-407.783 47.5001,-417.783 54.5001,-417.783"/>
</g>
<!-- identify -->
<g id="node6" class="node"><title>identify</title>
<polygon fill="lightyellow" stroke="lightyellow" points="211.566,-407.602 148.434,-407.602 148.434,-366.398 211.566,-366.398 211.566,-407.602"/>
<text text-anchor="middle" x="180" y="-391.2" font-family="Times,serif" font-size="14.00">Identify</text>
<text text-anchor="middle" x="180" y="-374.4" font-family="Times,serif" font-size="14.00">Features</text>
</g>
<!-- background&#45;&gt;identify -->
<g id="edge6" class="edge"><title>background&#45;&gt;identify</title>
<path fill="none" stroke="black" d="M180,-456.421C180,-444.319 180,-430.214 180,-417.965"/>
<polygon fill="black" stroke="black" points="183.5,-417.776 180,-407.776 176.5,-417.776 183.5,-417.776"/>
</g>
<!-- update -->
<g id="node8" class="node"><title>update</title>
<ellipse fill="lightgray" stroke="lightgray" cx="116" cy="-288" rx="41.3273" ry="41.0911"/>
<text text-anchor="middle" x="116" y="-300.6" font-family="Times,serif" font-size="14.00">Update</text>
<text text-anchor="middle" x="116" y="-283.8" font-family="Times,serif" font-size="14.00">Current</text>
<text text-anchor="middle" x="116" y="-267" font-family="Times,serif" font-size="14.00">Results</text>
</g>
<!-- measure&#45;&gt;update -->
<g id="edge11" class="edge"><title>measure&#45;&gt;update</title>
<path fill="none" stroke="black" d="M64.1537,-366.371C70.9655,-356.205 79.56,-343.38 87.7823,-331.109"/>
<polygon fill="black" stroke="black" points="90.7295,-332.999 93.3888,-322.743 84.9144,-329.102 90.7295,-332.999"/>
</g>
<!-- compare -->
<g id="node9" class="node"><title>compare</title>
<ellipse fill="lightgray" stroke="lightgray" cx="116" cy="-168" rx="57.1664" ry="41.0911"/>
<text text-anchor="middle" x="116" y="-180.6" font-family="Times,serif" font-size="14.00">Compare to</text>
<text text-anchor="middle" x="116" y="-163.8" font-family="Times,serif" font-size="14.00">Previous</text>
<text text-anchor="middle" x="116" y="-147" font-family="Times,serif" font-size="14.00">Scans</text>
</g>
<!-- measure&#45;&gt;compare -->
<g id="edge5" class="edge"><title>measure&#45;&gt;compare</title>
<path fill="none" stroke="black" d="M50.0421,-366.336C49.3374,-338.642 50.4045,-286.957 65,-246 69.0789,-234.554 75.212,-223.137 81.8257,-212.735"/>
<polygon fill="black" stroke="black" points="84.8395,-214.524 87.4596,-204.258 79.0096,-210.649 84.8395,-214.524"/>
</g>
<!-- identify&#45;&gt;update -->
<g id="edge9" class="edge"><title>identify&#45;&gt;update</title>
<path fill="none" stroke="black" d="M167.049,-366.371C160.465,-356.392 152.19,-343.85 144.23,-331.787"/>
<polygon fill="black" stroke="black" points="146.948,-329.55 138.519,-323.13 141.105,-333.405 146.948,-329.55"/>
</g>
<!-- identify&#45;&gt;compare -->
<g id="edge7" class="edge"><title>identify&#45;&gt;compare</title>
<path fill="none" stroke="black" d="M180.906,-366.354C181.549,-338.682 180.409,-287.023 166,-246 161.997,-234.604 155.983,-223.207 149.498,-212.809"/>
<polygon fill="black" stroke="black" points="152.366,-210.799 143.975,-204.331 146.501,-214.621 152.366,-210.799"/>
</g>
<!-- find -->
<g id="node7" class="node"><title>find</title>
<ellipse fill="yellow" stroke="yellow" cx="116" cy="-45" rx="43.9557" ry="44.1064"/>
<text text-anchor="middle" x="116" y="-57.6" font-family="Times,serif" font-size="14.00">Update</text>
<text text-anchor="middle" x="116" y="-40.8" font-family="Times,serif" font-size="14.00">Surgical</text>
<text text-anchor="middle" x="116" y="-24" font-family="Times,serif" font-size="14.00">Plan</text>
</g>
<!-- update&#45;&gt;compare -->
<g id="edge10" class="edge"><title>update&#45;&gt;compare</title>
<path fill="none" stroke="black" d="M116,-246.391C116,-237.862 116,-228.763 116,-219.912"/>
<polygon fill="black" stroke="black" points="119.5,-219.684 116,-209.684 112.5,-219.684 119.5,-219.684"/>
</g>
<!-- compare&#45;&gt;find -->
<g id="edge8" class="edge"><title>compare&#45;&gt;find</title>
<path fill="none" stroke="black" d="M116,-126.372C116,-117.792 116,-108.613 116,-99.6371"/>
<polygon fill="black" stroke="black" points="119.5,-99.633 116,-89.633 112.5,-99.633 119.5,-99.633"/>
</g>
<!-- tr1 -->
<g id="node10" class="node"><title>tr1</title>
<ellipse fill="lightgrey" stroke="black" cx="115" cy="-880" rx="63.3856" ry="18"/>
<text text-anchor="middle" x="115" y="-875.8" font-family="Times,serif" font-size="14.00">MRI&#45;Scanner</text>
</g>
<!-- tr1&#45;&gt;sil -->
<g id="edge12" class="edge"><title>tr1&#45;&gt;sil</title>
<path fill="none" stroke="black" d="M115,-861.902C115,-854.665 115,-845.632 115,-835.807"/>
<polygon fill="black" stroke="black" points="118.5,-835.753 115,-825.753 111.5,-835.753 118.5,-835.753"/>
</g>
</g>
</svg>
