
<svg width="747pt" height="500pt"
 viewBox="0.00 0.00 746.70 500.47" xmlns="http://www.w3.org/2000/svg" xmlns:xlink="http://www.w3.org/1999/xlink">
<g id="graph0" class="graph" transform="scale(1 1) rotate(0) translate(4 496.468)">
<title>%3</title>
<polygon fill="white" stroke="none" points="-4,4 -4,-496.468 742.698,-496.468 742.698,4 -4,4"/>
<!-- Query -->
<g id="node1" class="node"><title>Query</title>
<polygon fill="red" stroke="red" points="54,-131.573 0,-131.573 0,-95.5725 54,-95.5725 54,-131.573"/>
<text text-anchor="middle" x="27" y="-109.373" font-family="Times,serif" font-size="14.00">Query</text>
</g>
<!-- Spark SQL -->
<g id="node15" class="node"><title>Spark SQL</title>
<polygon fill="lightsteelblue" stroke="lightsteelblue" points="112.438,-316.024 34.2363,-316.024 34.2363,-280.024 112.438,-280.024 112.438,-316.024"/>
<text text-anchor="middle" x="73.3369" y="-293.824" font-family="Times,serif" font-size="14.00">Spark SQL</text>
</g>
<!-- Query&#45;&gt;Spark SQL -->
<g id="edge34" class="edge"><title>Query&#45;&gt;Spark SQL</title>
<path fill="none" stroke="red" d="M31.5273,-131.594C39.6246,-163.827 56.6397,-231.558 66.281,-269.936"/>
<polygon fill="red" stroke="red" points="62.9602,-271.083 68.7912,-279.929 69.7492,-269.377 62.9602,-271.083"/>
</g>
<!-- Private Database -->
<g id="node2" class="node"><title>Private Database</title>
<polygon fill="red" stroke="red" points="219.23,-50.5179 108.321,-50.5179 108.321,-14.5179 219.23,-14.5179 219.23,-50.5179"/>
<text text-anchor="middle" x="163.776" y="-28.3179" font-family="Times,serif" font-size="14.00">Private Database</text>
</g>
<!-- SDB -->
<g id="node13" class="node"><title>SDB</title>
<polygon fill="lightgreen" stroke="lightgreen" points="301.339,-204.882 159.463,-204.882 159.463,-168.882 301.339,-168.882 301.339,-204.882"/>
<text text-anchor="middle" x="230.401" y="-182.682" font-family="Times,serif" font-size="14.00">Spark Image Database</text>
</g>
<!-- Private Database&#45;&gt;SDB -->
<g id="edge7" class="edge"><title>Private Database&#45;&gt;SDB</title>
<path fill="none" stroke="black" d="M171.549,-50.5275C183.321,-77.8015 205.726,-129.712 219.239,-161.02"/>
<ellipse fill="black" stroke="black" cx="220.886" cy="-164.836" rx="4.00002" ry="4.00002"/>
</g>
<!-- Worker 1 -->
<g id="node3" class="node"><title>Worker 1</title>
<polygon fill="lightblue" stroke="lightblue" points="735.647,-338.218 666.145,-338.218 666.145,-302.218 735.647,-302.218 735.647,-338.218"/>
<text text-anchor="middle" x="700.896" y="-316.018" font-family="Times,serif" font-size="14.00">Worker 1</text>
</g>
<!-- Worker 2 -->
<g id="node4" class="node"><title>Worker 2</title>
<polygon fill="lightblue" stroke="lightblue" points="321.544,-373.493 252.042,-373.493 252.042,-337.493 321.544,-337.493 321.544,-373.493"/>
<text text-anchor="middle" x="286.793" y="-351.293" font-family="Times,serif" font-size="14.00">Worker 2</text>
</g>
<!-- Worker 1&#45;&gt;Worker 2 -->
<g id="edge46" class="edge"><title>Worker 1&#45;&gt;Worker 2</title>
<path fill="none" stroke="gray" d="M665.989,-315.305C590.972,-314.485 414.488,-329.194 331.456,-342.829"/>
<polygon fill="gray" stroke="gray" points="330.831,-339.385 321.568,-344.528 332.017,-346.284 330.831,-339.385"/>
</g>
<!-- Worker 1&#45;&gt;Worker 2 -->
<g id="edge55" class="edge"><title>Worker 1&#45;&gt;Worker 2</title>
<path fill="none" stroke="gray" d="M666.266,-331.156C591.468,-344.676 414.882,-359.974 331.662,-360.428"/>
<polygon fill="gray" stroke="gray" points="331.52,-356.928 321.511,-360.403 331.503,-363.928 331.52,-356.928"/>
</g>
<!-- Worker 3 -->
<g id="node5" class="node"><title>Worker 3</title>
<polygon fill="lightblue" stroke="lightblue" points="383.725,-283.042 314.223,-283.042 314.223,-247.042 383.725,-247.042 383.725,-283.042"/>
<text text-anchor="middle" x="348.974" y="-260.842" font-family="Times,serif" font-size="14.00">Worker 3</text>
</g>
<!-- Worker 1&#45;&gt;Worker 3 -->
<g id="edge42" class="edge"><title>Worker 1&#45;&gt;Worker 3</title>
<path fill="none" stroke="gray" d="M666.218,-306.093C601.996,-289.615 464.68,-267.867 393.62,-262.695"/>
<polygon fill="gray" stroke="gray" points="393.836,-259.202 383.633,-262.055 393.388,-266.188 393.836,-259.202"/>
</g>
<!-- Worker 1&#45;&gt;Worker 3 -->
<g id="edge43" class="edge"><title>Worker 1&#45;&gt;Worker 3</title>
<path fill="none" stroke="gray" d="M666.181,-323.202C601.971,-319.705 464.78,-298.585 393.707,-281.649"/>
<polygon fill="gray" stroke="gray" points="394.265,-278.182 383.718,-279.184 392.587,-284.978 394.265,-278.182"/>
</g>
<!-- Worker 4 -->
<g id="node6" class="node"><title>Worker 4</title>
<polygon fill="lightblue" stroke="lightblue" points="623.075,-240.581 553.574,-240.581 553.574,-204.581 623.075,-204.581 623.075,-240.581"/>
<text text-anchor="middle" x="588.325" y="-218.381" font-family="Times,serif" font-size="14.00">Worker 4</text>
</g>
<!-- Worker 1&#45;&gt;Worker 4 -->
<g id="edge53" class="edge"><title>Worker 1&#45;&gt;Worker 4</title>
<path fill="none" stroke="gray" d="M679.986,-302.082C662.215,-286.668 636.532,-264.392 616.87,-247.339"/>
<polygon fill="gray" stroke="gray" points="618.97,-244.528 609.123,-240.62 614.384,-249.816 618.97,-244.528"/>
</g>
<!-- Worker 2&#45;&gt;Worker 1 -->
<g id="edge58" class="edge"><title>Worker 2&#45;&gt;Worker 1</title>
<path fill="none" stroke="gray" d="M321.743,-352.516C396.726,-346.128 572.961,-331.116 656.052,-324.038"/>
<polygon fill="gray" stroke="gray" points="656.52,-327.511 666.187,-323.174 655.925,-320.536 656.52,-327.511"/>
</g>
<!-- Worker 2&#45;&gt;Worker 2 -->
<g id="edge56" class="edge"><title>Worker 2&#45;&gt;Worker 2</title>
<path fill="none" stroke="gray" d="M321.462,-362.222C331.581,-361.99 339.419,-359.747 339.419,-355.493 339.419,-352.834 336.357,-350.961 331.59,-349.873"/>
<polygon fill="gray" stroke="gray" points="331.784,-346.373 321.462,-348.763 331.021,-353.331 331.784,-346.373"/>
</g>
<!-- Worker 2&#45;&gt;Worker 3 -->
<g id="edge41" class="edge"><title>Worker 2&#45;&gt;Worker 3</title>
<path fill="none" stroke="gray" d="M314.206,-337.235C325.317,-324.359 336.903,-307.131 344.094,-292.631"/>
<polygon fill="gray" stroke="gray" points="347.459,-293.676 348.31,-283.115 341.059,-290.84 347.459,-293.676"/>
</g>
<!-- Worker 2&#45;&gt;Worker 3 -->
<g id="edge47" class="edge"><title>Worker 2&#45;&gt;Worker 3</title>
<path fill="none" stroke="gray" d="M287.454,-337.427C292.554,-324.045 303.628,-305.939 315.192,-291.084"/>
<polygon fill="gray" stroke="gray" points="318.007,-293.172 321.633,-283.217 312.59,-288.737 318.007,-293.172"/>
</g>
<!-- Worker 2&#45;&gt;Worker 3 -->
<g id="edge54" class="edge"><title>Worker 2&#45;&gt;Worker 3</title>
<path fill="none" stroke="gray" d="M299.376,-337.189C308.31,-324.193 320.45,-306.535 330.482,-291.941"/>
<polygon fill="gray" stroke="gray" points="333.628,-293.542 336.409,-283.319 327.86,-289.577 333.628,-293.542"/>
</g>
<!-- Worker 2&#45;&gt;Worker 4 -->
<g id="edge49" class="edge"><title>Worker 2&#45;&gt;Worker 4</title>
<path fill="none" stroke="gray" d="M321.646,-353.99C383.893,-337.66 511.918,-281.146 564.876,-246.531"/>
<polygon fill="gray" stroke="gray" points="567.024,-249.302 573.286,-240.755 563.061,-243.531 567.024,-249.302"/>
</g>
<!-- Worker 2&#45;&gt;Worker 4 -->
<g id="edge50" class="edge"><title>Worker 2&#45;&gt;Worker 4</title>
<path fill="none" stroke="gray" d="M301.851,-337.305C346.049,-305.152 474.866,-247.082 543.826,-226.778"/>
<polygon fill="gray" stroke="gray" points="544.858,-230.124 553.549,-224.064 542.976,-223.381 544.858,-230.124"/>
</g>
<!-- Storage 1 -->
<g id="node7" class="node"><title>Storage 1</title>
<ellipse fill="pink" stroke="pink" cx="272.45" cy="-474.468" rx="47.5537" ry="18"/>
<text text-anchor="middle" x="272.45" y="-470.268" font-family="Times,serif" font-size="14.00">Storage 1</text>
</g>
<!-- Worker 2&#45;&gt;Storage 1 -->
<g id="edge14" class="edge"><title>Worker 2&#45;&gt;Storage 1</title>
<path fill="none" stroke="gray" d="M279.468,-373.736C275.058,-393.599 271.013,-425.538 269.917,-448.122"/>
<ellipse fill="gray" stroke="gray" cx="269.779" cy="-452.276" rx="4" ry="4"/>
</g>
<!-- Worker 2&#45;&gt;Storage 1 -->
<g id="edge15" class="edge"><title>Worker 2&#45;&gt;Storage 1</title>
<path fill="none" stroke="gray" d="M289.597,-373.641C289.298,-393.697 285.642,-426.146 281.302,-448.8"/>
<ellipse fill="gray" stroke="gray" cx="280.487" cy="-452.744" rx="4.00001" ry="4.00001"/>
</g>
<!-- Storage 2 -->
<g id="node8" class="node"><title>Storage 2</title>
<ellipse fill="pink" stroke="pink" cx="77.5537" cy="-451.033" rx="47.5537" ry="18"/>
<text text-anchor="middle" x="77.5537" y="-446.833" font-family="Times,serif" font-size="14.00">Storage 2</text>
</g>
<!-- Worker 2&#45;&gt;Storage 2 -->
<g id="edge28" class="edge"><title>Worker 2&#45;&gt;Storage 2</title>
<path fill="none" stroke="gray" d="M251.771,-371.484C214.143,-388.665 154.532,-415.884 115.727,-433.603"/>
<ellipse fill="gray" stroke="gray" cx="111.895" cy="-435.352" rx="4.00002" ry="4.00002"/>
</g>
<!-- Storage 3 -->
<g id="node9" class="node"><title>Storage 3</title>
<ellipse fill="pink" stroke="pink" cx="676.697" cy="-465.614" rx="47.5537" ry="18"/>
<text text-anchor="middle" x="676.697" y="-461.414" font-family="Times,serif" font-size="14.00">Storage 3</text>
</g>
<!-- Worker 2&#45;&gt;Storage 3 -->
<g id="edge17" class="edge"><title>Worker 2&#45;&gt;Storage 3</title>
<path fill="none" stroke="gray" d="M321.738,-365.362C392.216,-385.267 551.393,-430.224 630.407,-452.54"/>
<ellipse fill="gray" stroke="gray" cx="634.408" cy="-453.67" rx="4.00001" ry="4.00001"/>
</g>
<!-- Storage 4 -->
<g id="node10" class="node"><title>Storage 4</title>
<ellipse fill="pink" stroke="pink" cx="529.156" cy="-456.926" rx="47.5537" ry="18"/>
<text text-anchor="middle" x="529.156" y="-452.726" font-family="Times,serif" font-size="14.00">Storage 4</text>
</g>
<!-- Worker 2&#45;&gt;Storage 4 -->
<g id="edge26" class="edge"><title>Worker 2&#45;&gt;Storage 4</title>
<path fill="none" stroke="gray" d="M321.518,-370.026C365.905,-388.603 442.584,-420.694 489.305,-440.248"/>
<ellipse fill="gray" stroke="gray" cx="493.129" cy="-441.848" rx="4.00002" ry="4.00002"/>
</g>
<!-- Storage 5 -->
<g id="node11" class="node"><title>Storage 5</title>
<ellipse fill="pink" stroke="pink" cx="413.84" cy="-454.783" rx="47.5537" ry="18"/>
<text text-anchor="middle" x="413.84" y="-450.583" font-family="Times,serif" font-size="14.00">Storage 5</text>
</g>
<!-- Worker 2&#45;&gt;Storage 5 -->
<g id="edge22" class="edge"><title>Worker 2&#45;&gt;Storage 5</title>
<path fill="none" stroke="gray" d="M310.096,-373.704C331.612,-390.519 363.585,-415.508 386.343,-433.294"/>
<ellipse fill="gray" stroke="gray" cx="389.643" cy="-435.872" rx="4.00002" ry="4.00002"/>
</g>
<!-- Worker 3&#45;&gt;Worker 1 -->
<g id="edge48" class="edge"><title>Worker 3&#45;&gt;Worker 1</title>
<path fill="none" stroke="gray" d="M383.681,-270.484C447.891,-280.551 585.144,-302.07 656.203,-313.211"/>
<polygon fill="gray" stroke="gray" points="655.768,-316.685 666.19,-314.776 656.853,-309.77 655.768,-316.685"/>
</g>
<!-- Worker 3&#45;&gt;Worker 3 -->
<g id="edge57" class="edge"><title>Worker 3&#45;&gt;Worker 3</title>
<path fill="none" stroke="gray" d="M383.642,-271.772C393.761,-271.539 401.599,-269.296 401.599,-265.042 401.599,-262.384 398.537,-260.51 393.771,-259.422"/>
<polygon fill="gray" stroke="gray" points="393.964,-255.923 383.642,-258.312 393.202,-262.881 393.964,-255.923"/>
</g>
<!-- Worker 3&#45;&gt;Worker 4 -->
<g id="edge45" class="edge"><title>Worker 3&#45;&gt;Worker 4</title>
<path fill="none" stroke="gray" d="M383.61,-263.847C425.911,-258.68 497.527,-246.163 543.86,-235.981"/>
<polygon fill="gray" stroke="gray" points="544.642,-239.393 553.629,-233.782 543.104,-232.564 544.642,-239.393"/>
</g>
<!-- Worker 3&#45;&gt;Storage 3 -->
<g id="edge21" class="edge"><title>Worker 3&#45;&gt;Storage 3</title>
<path fill="none" stroke="gray" d="M371.378,-283.157C426.664,-321.406 569.858,-409.295 638.697,-447.518"/>
<ellipse fill="gray" stroke="gray" cx="642.413" cy="-449.564" rx="4.00002" ry="4.00002"/>
</g>
<!-- Worker 3&#45;&gt;Storage 3 -->
<g id="edge33" class="edge"><title>Worker 3&#45;&gt;Storage 3</title>
<path fill="none" stroke="gray" d="M383.81,-281.388C449.53,-317.618 590.384,-403.897 649.619,-444.289"/>
<ellipse fill="gray" stroke="gray" cx="653.134" cy="-446.711" rx="4.00002" ry="4.00002"/>
</g>
<!-- Worker 3&#45;&gt;Storage 4 -->
<g id="edge16" class="edge"><title>Worker 3&#45;&gt;Storage 4</title>
<path fill="none" stroke="gray" d="M356.063,-283.203C379.933,-319.409 453.183,-398.625 496.611,-436.506"/>
<ellipse fill="gray" stroke="gray" cx="499.751" cy="-439.188" rx="4.00002" ry="4.00002"/>
</g>
<!-- Worker 3&#45;&gt;Storage 4 -->
<g id="edge27" class="edge"><title>Worker 3&#45;&gt;Storage 4</title>
<path fill="none" stroke="gray" d="M379.016,-283.297C419.628,-318.142 489.235,-392.72 517.434,-432.053"/>
<ellipse fill="gray" stroke="gray" cx="519.931" cy="-435.677" rx="4.00002" ry="4.00002"/>
</g>
<!-- Worker 3&#45;&gt;Storage 4 -->
<g id="edge31" class="edge"><title>Worker 3&#45;&gt;Storage 4</title>
<path fill="none" stroke="gray" d="M365.925,-283.094C398.855,-318.163 471.413,-395.434 507.664,-434.038"/>
<ellipse fill="gray" stroke="gray" cx="510.42" cy="-436.974" rx="4.00002" ry="4.00002"/>
</g>
<!-- Worker 3&#45;&gt;Storage 5 -->
<g id="edge19" class="edge"><title>Worker 3&#45;&gt;Storage 5</title>
<path fill="none" stroke="gray" d="M355.193,-283.235C366.798,-317.181 391.777,-390.245 405.081,-429.163"/>
<ellipse fill="gray" stroke="gray" cx="406.44" cy="-433.137" rx="4.00001" ry="4.00001"/>
</g>
<!-- Storage 6 -->
<g id="node12" class="node"><title>Storage 6</title>
<ellipse fill="pink" stroke="pink" cx="488.186" cy="-322.659" rx="47.5537" ry="18"/>
<text text-anchor="middle" x="488.186" y="-318.459" font-family="Times,serif" font-size="14.00">Storage 6</text>
</g>
<!-- Worker 3&#45;&gt;Storage 6 -->
<g id="edge23" class="edge"><title>Worker 3&#45;&gt;Storage 6</title>
<path fill="none" stroke="gray" d="M366.286,-283.05C383.435,-293.67 410.421,-305.892 434.673,-314.511"/>
<ellipse fill="gray" stroke="gray" cx="438.651" cy="-315.878" rx="4.00001" ry="4.00001"/>
</g>
<!-- Worker 3&#45;&gt;Storage 6 -->
<g id="edge25" class="edge"><title>Worker 3&#45;&gt;Storage 6</title>
<path fill="none" stroke="gray" d="M383.883,-267.154C409.312,-274.5 442.956,-288.578 465.124,-301.238"/>
<ellipse fill="gray" stroke="gray" cx="468.743" cy="-303.408" rx="4.00002" ry="4.00002"/>
</g>
<!-- Worker 3&#45;&gt;Storage 6 -->
<g id="edge30" class="edge"><title>Worker 3&#45;&gt;Storage 6</title>
<path fill="none" stroke="gray" d="M383.744,-279.433C403.311,-287.531 427.826,-297.677 448.187,-306.104"/>
<ellipse fill="gray" stroke="gray" cx="452.072" cy="-307.712" rx="4.00001" ry="4.00001"/>
</g>
<!-- Worker 4&#45;&gt;Worker 2 -->
<g id="edge40" class="edge"><title>Worker 4&#45;&gt;Worker 2</title>
<path fill="none" stroke="gray" d="M553.411,-233.143C496.738,-254.873 385.168,-303.91 325.906,-333"/>
<polygon fill="gray" stroke="gray" points="324.262,-329.909 316.861,-337.49 327.374,-336.179 324.262,-329.909"/>
</g>
<!-- Worker 4&#45;&gt;Worker 2 -->
<g id="edge51" class="edge"><title>Worker 4&#45;&gt;Worker 2</title>
<path fill="none" stroke="gray" d="M558.097,-240.664C504.642,-267.519 393.289,-316.788 331.135,-341.264"/>
<polygon fill="gray" stroke="gray" points="329.65,-338.086 321.598,-344.972 332.187,-344.61 329.65,-338.086"/>
</g>
<!-- Worker 4&#45;&gt;Worker 3 -->
<g id="edge52" class="edge"><title>Worker 4&#45;&gt;Worker 3</title>
<path fill="none" stroke="gray" d="M553.688,-223.776C511.387,-228.943 439.771,-241.46 393.439,-251.641"/>
<polygon fill="gray" stroke="gray" points="392.656,-248.23 383.67,-253.841 394.194,-255.059 392.656,-248.23"/>
</g>
<!-- Worker 4&#45;&gt;Worker 4 -->
<g id="edge39" class="edge"><title>Worker 4&#45;&gt;Worker 4</title>
<path fill="none" stroke="gray" d="M622.993,-225.946C633.112,-225.829 640.95,-224.708 640.95,-222.581 640.95,-221.251 637.888,-220.315 633.121,-219.771"/>
<polygon fill="gray" stroke="gray" points="633.17,-216.268 622.993,-219.216 632.787,-223.258 633.17,-216.268"/>
</g>
<!-- Worker 4&#45;&gt;Worker 4 -->
<g id="edge44" class="edge"><title>Worker 4&#45;&gt;Worker 4</title>
<path fill="none" stroke="gray" d="M623.209,-229.052C641.911,-230.152 658.95,-227.995 658.95,-222.581 658.95,-218.182 647.702,-215.933 633.452,-215.834"/>
<polygon fill="gray" stroke="gray" points="633.111,-212.342 623.209,-216.109 633.299,-219.339 633.111,-212.342"/>
</g>
<!-- Worker 4&#45;&gt;Storage 3 -->
<g id="edge29" class="edge"><title>Worker 4&#45;&gt;Storage 3</title>
<path fill="none" stroke="gray" d="M594.967,-240.848C610.519,-283.617 649.333,-390.36 667.299,-439.768"/>
<ellipse fill="gray" stroke="gray" cx="668.732" cy="-443.707" rx="4.00001" ry="4.00001"/>
</g>
<!-- Worker 4&#45;&gt;Storage 4 -->
<g id="edge32" class="edge"><title>Worker 4&#45;&gt;Storage 4</title>
<path fill="none" stroke="gray" d="M583.682,-240.969C573.222,-282.397 547.787,-383.134 535.719,-430.932"/>
<ellipse fill="gray" stroke="gray" cx="534.675" cy="-435.066" rx="4.00001" ry="4.00001"/>
</g>
<!-- Worker 4&#45;&gt;Storage 5 -->
<g id="edge24" class="edge"><title>Worker 4&#45;&gt;Storage 5</title>
<path fill="none" stroke="gray" d="M574.633,-240.801C543.392,-282.377 466.85,-384.238 431.844,-430.824"/>
<ellipse fill="gray" stroke="gray" cx="429.394" cy="-434.085" rx="4.00002" ry="4.00002"/>
</g>
<!-- Worker 4&#45;&gt;Storage 6 -->
<g id="edge18" class="edge"><title>Worker 4&#45;&gt;Storage 6</title>
<path fill="none" stroke="gray" d="M562.057,-240.745C543.696,-257.064 519.86,-280.98 504.234,-298.818"/>
<ellipse fill="gray" stroke="gray" cx="501.472" cy="-302.049" rx="4.00002" ry="4.00002"/>
</g>
<!-- Worker 4&#45;&gt;Storage 6 -->
<g id="edge20" class="edge"><title>Worker 4&#45;&gt;Storage 6</title>
<path fill="none" stroke="gray" d="M577.052,-240.853C562.682,-258.029 537.628,-283.541 517.727,-301.558"/>
<ellipse fill="gray" stroke="gray" cx="514.721" cy="-304.232" rx="4.00002" ry="4.00002"/>
</g>
<!-- SIL -->
<g id="node14" class="node"><title>SIL</title>
<polygon fill="lightgreen" stroke="lightgreen" points="419.617,-36 296.055,-36 296.055,-0 419.617,-0 419.617,-36"/>
<text text-anchor="middle" x="357.836" y="-13.8" font-family="Times,serif" font-size="14.00">Spark Image Layer</text>
</g>
<!-- SDB&#45;&gt;SIL -->
<g id="edge36" class="edge"><title>SDB&#45;&gt;SIL</title>
<path fill="none" stroke="red" d="M244.039,-168.809C266.591,-138.921 311.755,-79.0688 337.894,-44.4287"/>
<polygon fill="red" stroke="red" points="340.874,-46.2892 344.104,-36.1986 335.287,-42.0728 340.874,-46.2892"/>
</g>
<!-- SDB&#45;&gt;Spark SQL -->
<g id="edge1" class="edge"><title>SDB&#45;&gt;Spark SQL</title>
<path fill="none" stroke="black" d="M195.02,-205.094C165.091,-224.213 123.095,-254.072 97.0498,-274.845"/>
<ellipse fill="black" stroke="black" cx="93.8965" cy="-277.401" rx="4.00002" ry="4.00002"/>
</g>
<!-- Spark Core -->
<g id="node16" class="node"><title>Spark Core</title>
<polygon fill="lightsteelblue" stroke="lightsteelblue" points="427.766,-132.387 348.025,-132.387 348.025,-96.3865 427.766,-96.3865 427.766,-132.387"/>
<text text-anchor="middle" x="387.896" y="-110.187" font-family="Times,serif" font-size="14.00">Spark Core</text>
</g>
<!-- SDB&#45;&gt;Spark Core -->
<g id="edge8" class="edge"><title>SDB&#45;&gt;Spark Core</title>
<path fill="none" stroke="black" d="M269.737,-168.775C291.43,-158.79 318.498,-146.331 341.251,-135.857"/>
<ellipse fill="black" stroke="black" cx="345.155" cy="-134.06" rx="4.00002" ry="4.00002"/>
</g>
<!-- SIL&#45;&gt;Spark Core -->
<g id="edge2" class="edge"><title>SIL&#45;&gt;Spark Core</title>
<path fill="none" stroke="black" d="M358.044,-36.3573C360.968,-51.1104 367.16,-71.9894 373.332,-88.4458"/>
<ellipse fill="black" stroke="black" cx="374.884" cy="-92.3995" rx="4.00001" ry="4.00001"/>
</g>
<!-- SIL&#45;&gt;Spark Core -->
<g id="edge37" class="edge"><title>SIL&#45;&gt;Spark Core</title>
<path fill="none" stroke="red" d="M369.404,-36.3063C375.207,-50.3786 381.518,-70.0472 385.471,-86.1301"/>
<polygon fill="red" stroke="red" points="382.099,-87.092 387.699,-96.0861 388.93,-85.5631 382.099,-87.092"/>
</g>
<!-- MLLib -->
<g id="node17" class="node"><title>MLLib</title>
<polygon fill="lightsteelblue" stroke="lightsteelblue" points="582.622,-58.3639 525.738,-58.3639 525.738,-22.3639 582.622,-22.3639 582.622,-58.3639"/>
<text text-anchor="middle" x="554.18" y="-36.1639" font-family="Times,serif" font-size="14.00">MLLib</text>
</g>
<!-- SIL&#45;&gt;MLLib -->
<g id="edge5" class="edge"><title>SIL&#45;&gt;MLLib</title>
<path fill="none" stroke="black" d="M419.691,-25.0454C451.882,-28.7119 490.136,-33.0692 517.601,-36.1975"/>
<ellipse fill="black" stroke="black" cx="521.785" cy="-36.674" rx="4.00001" ry="4.00001"/>
</g>
<!-- GraphX -->
<g id="node18" class="node"><title>GraphX</title>
<polygon fill="lightsteelblue" stroke="lightsteelblue" points="738.743,-110.082 677.566,-110.082 677.566,-74.0825 738.743,-74.0825 738.743,-110.082"/>
<text text-anchor="middle" x="708.154" y="-87.8825" font-family="Times,serif" font-size="14.00">GraphX</text>
</g>
<!-- SIL&#45;&gt;GraphX -->
<g id="edge6" class="edge"><title>SIL&#45;&gt;GraphX</title>
<path fill="none" stroke="black" d="M419.66,-31.0739C491.698,-46.3081 608.559,-71.0209 669.066,-83.8165"/>
<ellipse fill="black" stroke="black" cx="673.306" cy="-84.713" rx="4.00001" ry="4.00001"/>
</g>
<!-- Spark SQL&#45;&gt;SDB -->
<g id="edge35" class="edge"><title>Spark SQL&#45;&gt;SDB</title>
<path fill="none" stroke="red" d="M108.718,-279.812C138.013,-261.098 178.869,-232.094 205.012,-211.392"/>
<polygon fill="red" stroke="red" points="207.365,-213.99 212.949,-204.986 202.969,-208.543 207.365,-213.99"/>
</g>
<!-- Master Cloud Node -->
<g id="node19" class="node"><title>Master Cloud Node</title>
<polygon fill="lightsteelblue" stroke="lightsteelblue" points="518.428,-206.443 391.591,-206.443 391.591,-170.443 518.428,-170.443 518.428,-206.443"/>
<text text-anchor="middle" x="455.01" y="-184.243" font-family="Times,serif" font-size="14.00">Master Cloud Node</text>
</g>
<!-- Spark Core&#45;&gt;Master Cloud Node -->
<g id="edge9" class="edge"><title>Spark Core&#45;&gt;Master Cloud Node</title>
<path fill="none" stroke="black" d="M397.077,-132.714C404.225,-142.281 414.395,-154.042 424.254,-164.319"/>
<ellipse fill="black" stroke="black" cx="427.195" cy="-167.316" rx="4.00002" ry="4.00002"/>
</g>
<!-- Spark Core&#45;&gt;Master Cloud Node -->
<g id="edge38" class="edge"><title>Spark Core&#45;&gt;Master Cloud Node</title>
<path fill="none" stroke="red" d="M412.66,-132.412C421.73,-141.409 431.689,-152.408 439.718,-162.297"/>
<polygon fill="red" stroke="red" points="437.034,-164.546 445.947,-170.275 442.552,-160.238 437.034,-164.546"/>
</g>
<!-- MLLib&#45;&gt;Spark Core -->
<g id="edge3" class="edge"><title>MLLib&#45;&gt;Spark Core</title>
<path fill="none" stroke="black" d="M525.595,-53.0888C500.79,-64.1309 464.385,-80.3367 435.237,-93.3122"/>
<ellipse fill="black" stroke="black" cx="431.265" cy="-95.0806" rx="4.00002" ry="4.00002"/>
</g>
<!-- GraphX&#45;&gt;Spark Core -->
<g id="edge4" class="edge"><title>GraphX&#45;&gt;Spark Core</title>
<path fill="none" stroke="black" d="M677.446,-94.2211C621.52,-98.116 502.685,-106.392 435.948,-111.04"/>
<ellipse fill="black" stroke="black" cx="431.67" cy="-111.338" rx="4" ry="4"/>
</g>
<!-- Master Cloud Node&#45;&gt;Worker 1 -->
<g id="edge10" class="edge"><title>Master Cloud Node&#45;&gt;Worker 1</title>
<path fill="none" stroke="gray" d="M488.683,-206.489C533.346,-230.425 612.11,-272.636 660.097,-298.353"/>
<ellipse fill="gray" stroke="gray" cx="663.71" cy="-300.289" rx="4.00002" ry="4.00002"/>
</g>
<!-- Master Cloud Node&#45;&gt;Worker 2 -->
<g id="edge11" class="edge"><title>Master Cloud Node&#45;&gt;Worker 2</title>
<path fill="none" stroke="gray" d="M436.687,-206.638C406.225,-236.889 345.155,-297.535 311.12,-331.335"/>
<ellipse fill="gray" stroke="gray" cx="307.931" cy="-334.501" rx="4.00002" ry="4.00002"/>
</g>
<!-- Master Cloud Node&#45;&gt;Worker 3 -->
<g id="edge12" class="edge"><title>Master Cloud Node&#45;&gt;Worker 3</title>
<path fill="none" stroke="gray" d="M429.881,-206.596C415.09,-217.28 396.252,-230.888 380.476,-242.285"/>
<ellipse fill="gray" stroke="gray" cx="377.165" cy="-244.677" rx="4.00002" ry="4.00002"/>
</g>
<!-- Master Cloud Node&#45;&gt;Worker 4 -->
<g id="edge13" class="edge"><title>Master Cloud Node&#45;&gt;Worker 4</title>
<path fill="none" stroke="gray" d="M518.543,-204.712C527.786,-207.079 537.108,-209.466 545.798,-211.691"/>
<ellipse fill="gray" stroke="gray" cx="549.705" cy="-212.692" rx="4.00001" ry="4.00001"/>
</g>
</g>
</svg>
