
<svg width="185pt" height="338pt"
 viewBox="0.00 0.00 185.00 338.00" xmlns="http://www.w3.org/2000/svg" xmlns:xlink="http://www.w3.org/1999/xlink">
<g id="graph0" class="graph" transform="scale(1 1) rotate(0) translate(4 334)">
<title>%3</title>
<polygon fill="white" stroke="none" points="-4,4 -4,-334 181,-334 181,4 -4,4"/>
<!-- Model -->
<g id="node1" class="node"><title>Model</title>
<polygon fill="lightgray" stroke="lightgray" points="164,-330 110,-330 110,-294 164,-294 164,-330"/>
<text text-anchor="middle" x="137" y="-307.8" font-family="Times,serif" font-size="14.00">Model</text>
</g>
<!-- Hypothesis -->
<g id="node2" class="node"><title>Hypothesis</title>
<ellipse fill="none" stroke="lightgray" cx="96" cy="-240" rx="54.2305" ry="18"/>
<text text-anchor="middle" x="96" y="-235.8" font-family="Times,serif" font-size="14.00">Hypothesis</text>
</g>
<!-- Model&#45;&gt;Hypothesis -->
<g id="edge1" class="edge"><title>Model&#45;&gt;Hypothesis</title>
<path fill="none" stroke="black" d="M126.865,-293.697C122.148,-285.644 116.438,-275.894 111.218,-266.982"/>
<polygon fill="black" stroke="black" points="114.092,-264.964 106.018,-258.104 108.052,-268.502 114.092,-264.964"/>
</g>
<!-- Experiment -->
<g id="node3" class="node"><title>Experiment</title>
<ellipse fill="none" stroke="lightgray" cx="56" cy="-168" rx="56.1336" ry="18"/>
<text text-anchor="middle" x="56" y="-163.8" font-family="Times,serif" font-size="14.00">Experiment</text>
</g>
<!-- Hypothesis&#45;&gt;Experiment -->
<g id="edge2" class="edge"><title>Hypothesis&#45;&gt;Experiment</title>
<path fill="none" stroke="black" d="M86.3171,-222.055C81.6004,-213.801 75.8294,-203.701 70.593,-194.538"/>
<polygon fill="black" stroke="black" points="73.594,-192.735 65.5937,-185.789 67.5163,-196.208 73.594,-192.735"/>
</g>
<!-- Statistics
Validation -->
<g id="node5" class="node"><title>Statistics
Validation</title>
<polygon fill="lightsteelblue" stroke="lightsteelblue" points="177.323,-41.6019 102.677,-41.6019 102.677,-0.398095 177.323,-0.398095 177.323,-41.6019"/>
<text text-anchor="middle" x="140" y="-25.2" font-family="Times,serif" font-size="14.00">Statistics</text>
<text text-anchor="middle" x="140" y="-8.4" font-family="Times,serif" font-size="14.00">Validation</text>
</g>
<!-- Hypothesis&#45;&gt;Statistics
Validation -->
<g id="edge5" class="edge"><title>Hypothesis&#45;&gt;Statistics
Validation</title>
<path fill="none" stroke="black" d="M105.819,-221.892C111.176,-211.772 117.426,-198.522 121,-186 134.027,-140.363 138.151,-85.153 139.439,-51.8456"/>
<polygon fill="black" stroke="black" points="142.937,-51.9498 139.765,-41.841 135.941,-51.7216 142.937,-51.9498"/>
</g>
<!-- Data -->
<g id="node4" class="node"><title>Data</title>
<polygon fill="lightgray" stroke="lightgray" points="98,-114 44,-114 44,-78 98,-78 98,-114"/>
<text text-anchor="middle" x="71" y="-91.8" font-family="Times,serif" font-size="14.00">Data</text>
</g>
<!-- Experiment&#45;&gt;Data -->
<g id="edge3" class="edge"><title>Experiment&#45;&gt;Data</title>
<path fill="none" stroke="black" d="M59.7079,-149.697C61.3608,-141.983 63.3473,-132.712 65.1902,-124.112"/>
<polygon fill="black" stroke="black" points="68.6617,-124.616 67.3348,-114.104 61.8171,-123.149 68.6617,-124.616"/>
</g>
<!-- Data&#45;&gt;Statistics
Validation -->
<g id="edge4" class="edge"><title>Data&#45;&gt;Statistics
Validation</title>
<path fill="none" stroke="black" d="M87.352,-77.7C95.4021,-69.1832 105.295,-58.7167 114.324,-49.1647"/>
<polygon fill="black" stroke="black" points="117.002,-51.4265 121.328,-41.7549 111.915,-46.618 117.002,-51.4265"/>
</g>
<!-- Statistics
Validation&#45;&gt;Model -->
<g id="edge6" class="edge"><title>Statistics
Validation&#45;&gt;Model</title>
<path fill="none" stroke="red" d="M145.237,-41.7941C155.244,-82.6245 174.747,-178.989 159,-258 157.072,-267.673 153.345,-277.79 149.499,-286.562"/>
<ellipse fill="red" stroke="red" cx="147.803" cy="-290.246" rx="4.00002" ry="4.00002"/>
</g>
</g>
</svg>
