
<svg width="632pt" height="321pt"
 viewBox="0.00 0.00 632.31 321.13" xmlns="http://www.w3.org/2000/svg" xmlns:xlink="http://www.w3.org/1999/xlink">
<g id="graph0" class="graph" transform="scale(1 1) rotate(0) translate(4 317.13)">
<title>%3</title>
<polygon fill="white" stroke="none" points="-4,4 -4,-317.13 628.308,-317.13 628.308,4 -4,4"/>
<!-- Worker 1 -->
<g id="node1" class="node"><title>Worker 1</title>
<polygon fill="lightblue" stroke="lightblue" points="162.528,-36 93.026,-36 93.026,-1.27898e-13 162.528,-1.27898e-13 162.528,-36"/>
<text text-anchor="middle" x="127.777" y="-13.8" font-family="Times,serif" font-size="14.00">Worker 1</text>
</g>
<!-- Storage 1 -->
<g id="node5" class="node"><title>Storage 1</title>
<ellipse fill="pink" stroke="pink" cx="47.7764" cy="-156.565" rx="47.5537" ry="18"/>
<text text-anchor="middle" x="47.7764" y="-152.365" font-family="Times,serif" font-size="14.00">Storage 1</text>
</g>
<!-- Worker 1&#45;&gt;Storage 1 -->
<g id="edge7" class="edge"><title>Worker 1&#45;&gt;Storage 1</title>
<path fill="none" stroke="gray" d="M117.318,-36.115C103.166,-60.6271 77.8672,-104.446 61.9983,-131.932"/>
<ellipse fill="gray" stroke="gray" cx="59.9847" cy="-135.42" rx="4.00002" ry="4.00002"/>
</g>
<!-- Worker 2 -->
<g id="node2" class="node"><title>Worker 2</title>
<polygon fill="lightblue" stroke="lightblue" points="162.528,-313.13 93.026,-313.13 93.026,-277.13 162.528,-277.13 162.528,-313.13"/>
<text text-anchor="middle" x="127.777" y="-290.93" font-family="Times,serif" font-size="14.00">Worker 2</text>
</g>
<!-- Worker 2&#45;&gt;Storage 1 -->
<g id="edge8" class="edge"><title>Worker 2&#45;&gt;Storage 1</title>
<path fill="none" stroke="gray" d="M117.318,-277.015C103.166,-252.503 77.8672,-208.684 61.9983,-181.198"/>
<ellipse fill="gray" stroke="gray" cx="59.9847" cy="-177.71" rx="4.00002" ry="4.00002"/>
</g>
<!-- Worker 3 -->
<g id="node3" class="node"><title>Worker 3</title>
<polygon fill="lightblue" stroke="lightblue" points="322.529,-36 253.027,-36 253.027,-1.42109e-14 322.529,-1.42109e-14 322.529,-36"/>
<text text-anchor="middle" x="287.778" y="-13.8" font-family="Times,serif" font-size="14.00">Worker 3</text>
</g>
<!-- Worker 3&#45;&gt;Storage 1 -->
<g id="edge9" class="edge"><title>Worker 3&#45;&gt;Storage 1</title>
<path fill="none" stroke="gray" d="M256.402,-36.115C211.053,-62.2972 127.552,-110.507 81.125,-137.311"/>
<ellipse fill="gray" stroke="gray" cx="77.4677" cy="-139.423" rx="4.00002" ry="4.00002"/>
</g>
<!-- Worker 4 -->
<g id="node4" class="node"><title>Worker 4</title>
<polygon fill="lightblue" stroke="lightblue" points="322.529,-313.13 253.027,-313.13 253.027,-277.13 322.529,-277.13 322.529,-313.13"/>
<text text-anchor="middle" x="287.778" y="-290.93" font-family="Times,serif" font-size="14.00">Worker 4</text>
</g>
<!-- Worker 4&#45;&gt;Storage 1 -->
<g id="edge10" class="edge"><title>Worker 4&#45;&gt;Storage 1</title>
<path fill="none" stroke="gray" d="M256.402,-277.015C211.053,-250.833 127.552,-202.623 81.125,-175.819"/>
<ellipse fill="gray" stroke="gray" cx="77.4677" cy="-173.707" rx="4.00002" ry="4.00002"/>
</g>
<!-- user -->
<g id="node6" class="node"><title>user</title>
<ellipse fill="none" stroke="purple" cx="595.043" cy="-156.565" rx="29.0318" ry="29.0318"/>
<text text-anchor="middle" x="595.043" y="-152.365" font-family="Times,serif" font-size="14.00">User</text>
</g>
<!-- driver -->
<g id="node7" class="node"><title>driver</title>
<polygon fill="lightgray" stroke="lightgray" points="493.778,-174.565 439.778,-174.565 439.778,-138.565 493.778,-138.565 493.778,-174.565"/>
<text text-anchor="middle" x="466.778" y="-152.365" font-family="Times,serif" font-size="14.00">Driver</text>
</g>
<!-- user&#45;&gt;driver -->
<g id="edge1" class="edge"><title>user&#45;&gt;driver</title>
<path fill="none" stroke="black" d="M565.617,-156.565C547.31,-156.565 523.605,-156.565 503.998,-156.565"/>
<polygon fill="black" stroke="black" points="503.88,-153.065 493.88,-156.565 503.88,-160.065 503.88,-153.065"/>
</g>
<!-- master -->
<g id="node8" class="node"><title>master</title>
<polygon fill="lightgreen" stroke="lightgreen" points="411.97,-174.565 323.587,-174.565 323.587,-138.565 411.97,-138.565 411.97,-174.565"/>
<text text-anchor="middle" x="367.778" y="-152.365" font-family="Times,serif" font-size="14.00">Master Node</text>
</g>
<!-- driver&#45;&gt;master -->
<g id="edge2" class="edge"><title>driver&#45;&gt;master</title>
<path fill="none" stroke="black" d="M439.726,-156.565C434.298,-156.565 428.413,-156.565 422.427,-156.565"/>
<polygon fill="black" stroke="black" points="422.319,-153.065 412.319,-156.565 422.319,-160.065 422.319,-153.065"/>
</g>
<!-- master&#45;&gt;Worker 1 -->
<g id="edge3" class="edge"><title>master&#45;&gt;Worker 1</title>
<path fill="none" stroke="gray" d="M336.402,-138.45C292.652,-113.191 213.392,-67.4301 166.171,-40.1666"/>
<ellipse fill="gray" stroke="gray" cx="162.625" cy="-38.1194" rx="4.00002" ry="4.00002"/>
<text text-anchor="middle" x="215.718" y="-110.308" font-family="Times,serif" font-size="14.00">Read Image:</text>
<text text-anchor="middle" x="215.718" y="-93.5083" font-family="Times,serif" font-size="14.00"> 0 to 2</text>
</g>
<!-- master&#45;&gt;Worker 2 -->
<g id="edge4" class="edge"><title>master&#45;&gt;Worker 2</title>
<path fill="none" stroke="gray" d="M336.402,-174.68C292.652,-199.939 213.392,-245.7 166.171,-272.963"/>
<ellipse fill="gray" stroke="gray" cx="162.625" cy="-275.011" rx="4.00002" ry="4.00002"/>
<text text-anchor="middle" x="215.718" y="-244.822" font-family="Times,serif" font-size="14.00">Read Image:</text>
<text text-anchor="middle" x="215.718" y="-228.022" font-family="Times,serif" font-size="14.00"> 3 to 5</text>
</g>
<!-- master&#45;&gt;Worker 3 -->
<g id="edge5" class="edge"><title>master&#45;&gt;Worker 3</title>
<path fill="none" stroke="gray" d="M357.32,-138.45C343.245,-114.073 318.146,-70.5999 302.262,-43.0876"/>
<ellipse fill="gray" stroke="gray" cx="300.239" cy="-39.5835" rx="4.00002" ry="4.00002"/>
<text text-anchor="middle" x="294.223" y="-111.769" font-family="Times,serif" font-size="14.00">Read Image:</text>
<text text-anchor="middle" x="294.223" y="-94.9688" font-family="Times,serif" font-size="14.00"> 6 to 8</text>
</g>
<!-- master&#45;&gt;Worker 4 -->
<g id="edge6" class="edge"><title>master&#45;&gt;Worker 4</title>
<path fill="none" stroke="gray" d="M357.32,-174.68C343.245,-199.057 318.146,-242.53 302.262,-270.042"/>
<ellipse fill="gray" stroke="gray" cx="300.239" cy="-273.546" rx="4.00002" ry="4.00002"/>
<text text-anchor="middle" x="294.223" y="-243.361" font-family="Times,serif" font-size="14.00">Read Image:</text>
<text text-anchor="middle" x="294.223" y="-226.561" font-family="Times,serif" font-size="14.00"> 9 to 11</text>
</g>
</g>
</svg>
