
<svg width="498pt" height="630pt"
 viewBox="0.00 0.00 498.00 630.00" xmlns="http://www.w3.org/2000/svg" xmlns:xlink="http://www.w3.org/1999/xlink">
<g id="graph0" class="graph" transform="scale(1 1) rotate(0) translate(4 626)">
<title>%3</title>
<polygon fill="white" stroke="none" points="-4,4 -4,-626 494,-626 494,4 -4,4"/>
<!-- xscan -->
<g id="node1" class="node"><title>xscan</title>
<polygon fill="lightgray" stroke="lightgray" points="488.902,-622 409.098,-622 409.098,-586 488.902,-586 488.902,-622"/>
<text text-anchor="middle" x="449" y="-599.8" font-family="Times,serif" font-size="14.00">for x in [...]</text>
</g>
<!-- yscan -->
<g id="node2" class="node"><title>yscan</title>
<polygon fill="lightgray" stroke="lightgray" points="454.902,-550 375.098,-550 375.098,-514 454.902,-514 454.902,-550"/>
<text text-anchor="middle" x="415" y="-527.8" font-family="Times,serif" font-size="14.00">for y in [...]</text>
</g>
<!-- xscan&#45;&gt;yscan -->
<g id="edge1" class="edge"><title>xscan&#45;&gt;yscan</title>
<path fill="none" stroke="black" d="M440.596,-585.697C436.725,-577.728 432.048,-568.1 427.757,-559.264"/>
<polygon fill="black" stroke="black" points="430.825,-557.57 423.308,-550.104 424.529,-560.629 430.825,-557.57"/>
</g>
<!-- zscan -->
<g id="node3" class="node"><title>zscan</title>
<polygon fill="lightgray" stroke="lightgray" points="398.312,-478 319.688,-478 319.688,-442 398.312,-442 398.312,-478"/>
<text text-anchor="middle" x="359" y="-455.8" font-family="Times,serif" font-size="14.00">for z in [...]</text>
</g>
<!-- yscan&#45;&gt;zscan -->
<g id="edge2" class="edge"><title>yscan&#45;&gt;zscan</title>
<path fill="none" stroke="black" d="M401.157,-513.697C394.511,-505.389 386.422,-495.277 379.113,-486.141"/>
<polygon fill="black" stroke="black" points="381.664,-483.727 372.683,-478.104 376.197,-488.099 381.664,-483.727"/>
</g>
<!-- iscan -->
<g id="node4" class="node"><title>iscan</title>
<polygon fill="lightgray" stroke="lightgray" points="269.94,-406 164.06,-406 164.06,-370 269.94,-370 269.94,-406"/>
<text text-anchor="middle" x="217" y="-383.8" font-family="Times,serif" font-size="14.00">for ix in [&#45;1,0,1]</text>
</g>
<!-- zscan&#45;&gt;iscan -->
<g id="edge3" class="edge"><title>zscan&#45;&gt;iscan</title>
<path fill="none" stroke="black" d="M324.263,-441.876C305.181,-432.469 281.321,-420.708 260.953,-410.667"/>
<polygon fill="black" stroke="black" points="262.388,-407.472 251.871,-406.19 259.292,-413.751 262.388,-407.472"/>
</g>
<!-- imagea -->
<g id="node8" class="node"><title>imagea</title>
<ellipse fill="lightsteelblue" stroke="lightsteelblue" cx="312" cy="-316" rx="66.2141" ry="18"/>
<text text-anchor="middle" x="312" y="-311.8" font-family="Times,serif" font-size="14.00">Load Image A</text>
</g>
<!-- zscan&#45;&gt;imagea -->
<g id="edge7" class="edge"><title>zscan&#45;&gt;imagea</title>
<path fill="none" stroke="black" d="M353.331,-441.871C345.285,-417.564 330.475,-372.819 320.941,-344.013"/>
<polygon fill="black" stroke="black" points="324.154,-342.583 317.689,-334.189 317.509,-344.783 324.154,-342.583"/>
</g>
<!-- jscan -->
<g id="node5" class="node"><title>jscan</title>
<polygon fill="lightgray" stroke="lightgray" points="188.94,-334 83.0605,-334 83.0605,-298 188.94,-298 188.94,-334"/>
<text text-anchor="middle" x="136" y="-311.8" font-family="Times,serif" font-size="14.00">for iy in [&#45;1,0,1]</text>
</g>
<!-- iscan&#45;&gt;jscan -->
<g id="edge4" class="edge"><title>iscan&#45;&gt;jscan</title>
<path fill="none" stroke="black" d="M196.978,-369.697C186.874,-360.965 174.464,-350.24 163.482,-340.75"/>
<polygon fill="black" stroke="black" points="165.647,-337.995 155.792,-334.104 161.07,-343.291 165.647,-337.995"/>
</g>
<!-- kscan -->
<g id="node6" class="node"><title>kscan</title>
<polygon fill="lightgray" stroke="lightgray" points="169.94,-262 64.0605,-262 64.0605,-226 169.94,-226 169.94,-262"/>
<text text-anchor="middle" x="117" y="-239.8" font-family="Times,serif" font-size="14.00">for ix in [&#45;1,0,1]</text>
</g>
<!-- jscan&#45;&gt;kscan -->
<g id="edge5" class="edge"><title>jscan&#45;&gt;kscan</title>
<path fill="none" stroke="black" d="M131.303,-297.697C129.187,-289.898 126.638,-280.509 124.282,-271.829"/>
<polygon fill="black" stroke="black" points="127.64,-270.838 121.643,-262.104 120.884,-272.672 127.64,-270.838"/>
</g>
<!-- imageb -->
<g id="node9" class="node"><title>imageb</title>
<ellipse fill="lightsteelblue" stroke="lightsteelblue" cx="66" cy="-172" rx="65.9169" ry="18"/>
<text text-anchor="middle" x="66" y="-167.8" font-family="Times,serif" font-size="14.00">Load Image B</text>
</g>
<!-- kscan&#45;&gt;imageb -->
<g id="edge6" class="edge"><title>kscan&#45;&gt;imageb</title>
<path fill="none" stroke="black" d="M104.393,-225.697C98.4026,-217.474 91.1235,-207.483 84.5208,-198.421"/>
<polygon fill="black" stroke="black" points="87.1792,-196.126 78.4617,-190.104 81.5215,-200.248 87.1792,-196.126"/>
</g>
<!-- overlap -->
<g id="node7" class="node"><title>overlap</title>
<polygon fill="pink" stroke="pink" points="264,-117.663 166.911,-29.6685 361.089,-29.6685 264,-117.663"/>
<text text-anchor="middle" x="264" y="-63.2" font-family="Times,serif" font-size="14.00">Calculate</text>
<text text-anchor="middle" x="264" y="-46.4" font-family="Times,serif" font-size="14.00">Overlap</text>
</g>
<!-- overlap&#45;&gt;xscan -->
<g id="edge10" class="edge"><title>overlap&#45;&gt;xscan</title>
<path fill="none" stroke="red" stroke-dasharray="5,2" d="M310.712,-75.3301C375.03,-99.7243 483,-153.938 483,-243 483,-461 483,-461 483,-461 483,-502.991 468.764,-550.095 458.716,-578.113"/>
<ellipse fill="red" stroke="red" cx="457.26" cy="-582.075" rx="4.00001" ry="4.00001"/>
</g>
<!-- overlap&#45;&gt;yscan -->
<g id="edge11" class="edge"><title>overlap&#45;&gt;yscan</title>
<path fill="none" stroke="red" stroke-dasharray="5,2" d="M306.436,-79.6416C359.935,-107.673 445,-164.576 445,-243 445,-389 445,-389 445,-389 445,-430.738 432.439,-477.916 423.573,-506.019"/>
<ellipse fill="red" stroke="red" cx="422.301" cy="-509.953" rx="4.00001" ry="4.00001"/>
</g>
<!-- overlap&#45;&gt;zscan -->
<g id="edge12" class="edge"><title>overlap&#45;&gt;zscan</title>
<path fill="none" stroke="red" stroke-dasharray="5,2" d="M300.826,-84.3236C343.196,-115.563 407,-174.052 407,-243 407,-317 407,-317 407,-317 407,-360.054 386.952,-406.768 372.769,-434.428"/>
<ellipse fill="red" stroke="red" cx="370.806" cy="-438.165" rx="4.00002" ry="4.00002"/>
</g>
<!-- overlap&#45;&gt;iscan -->
<g id="edge13" class="edge"><title>overlap&#45;&gt;iscan</title>
<path fill="none" stroke="red" stroke-dasharray="5,2" d="M256.666,-111.027C246.44,-182.171 228.291,-308.443 220.602,-361.938"/>
<ellipse fill="red" stroke="red" cx="220.03" cy="-365.92" rx="4.00001" ry="4.00001"/>
</g>
<!-- overlap&#45;&gt;jscan -->
<g id="edge14" class="edge"><title>overlap&#45;&gt;jscan</title>
<path fill="none" stroke="red" stroke-dasharray="5,2" d="M245.231,-101.02C237.838,-117.429 229.37,-136.546 222,-154 201.902,-201.595 205.13,-217.43 179,-262 172.924,-272.364 164.916,-282.832 157.459,-291.696"/>
<ellipse fill="red" stroke="red" cx="154.774" cy="-294.813" rx="4.00002" ry="4.00002"/>
</g>
<!-- overlap&#45;&gt;kscan -->
<g id="edge15" class="edge"><title>overlap&#45;&gt;kscan</title>
<path fill="none" stroke="red" stroke-dasharray="5,2" d="M235.747,-92.2263C220.209,-110.189 200.743,-133.091 184,-154 166.711,-175.591 147.829,-200.834 134.529,-218.911"/>
<ellipse fill="red" stroke="red" cx="131.911" cy="-222.48" rx="4.00002" ry="4.00002"/>
</g>
<!-- imagea&#45;&gt;overlap -->
<g id="edge8" class="edge"><title>imagea&#45;&gt;overlap</title>
<path fill="none" stroke="black" d="M308.776,-297.873C302.024,-262.003 286.121,-177.515 275.206,-119.531"/>
<polygon fill="black" stroke="black" points="278.586,-118.569 273.297,-109.389 271.707,-119.864 278.586,-118.569"/>
</g>
<!-- imageb&#45;&gt;overlap -->
<g id="edge9" class="edge"><title>imageb&#45;&gt;overlap</title>
<path fill="none" stroke="black" d="M93.5311,-155.566C125.01,-137.918 177.133,-108.698 215.471,-87.2058"/>
<polygon fill="black" stroke="black" points="217.396,-90.1388 224.408,-82.1957 213.973,-84.0328 217.396,-90.1388"/>
</g>
</g>
</svg>
