
<svg width="632pt" height="321pt"
 viewBox="0.00 0.00 632.31 321.13" xmlns="http://www.w3.org/2000/svg" xmlns:xlink="http://www.w3.org/1999/xlink">
<g id="graph0" class="graph" transform="scale(1 1) rotate(0) translate(4 317.13)">
<title>%3</title>
<polygon fill="white" stroke="none" points="-4,4 -4,-317.13 628.308,-317.13 628.308,4 -4,4"/>
<!-- Worker 1 -->
<g id="node1" class="node"><title>Worker 1</title>
<polygon fill="lightblue" stroke="lightblue" points="162.528,-36 93.026,-36 93.026,-1.27898e-13 162.528,-1.27898e-13 162.528,-36"/>
<text text-anchor="middle" x="127.777" y="-13.8" font-family="Times,serif" font-size="14.00">Worker 1</text>
</g>
<!-- Worker 2 -->
<g id="node2" class="node"><title>Worker 2</title>
<polygon fill="lightblue" stroke="lightblue" points="162.528,-313.13 93.026,-313.13 93.026,-277.13 162.528,-277.13 162.528,-313.13"/>
<text text-anchor="middle" x="127.777" y="-290.93" font-family="Times,serif" font-size="14.00">Worker 2</text>
</g>
<!-- Worker 3 -->
<g id="node3" class="node"><title>Worker 3</title>
<polygon fill="lightblue" stroke="lightblue" points="322.529,-36 253.027,-36 253.027,-1.42109e-14 322.529,-1.42109e-14 322.529,-36"/>
<text text-anchor="middle" x="287.778" y="-13.8" font-family="Times,serif" font-size="14.00">Worker 3</text>
</g>
<!-- Worker 4 -->
<g id="node4" class="node"><title>Worker 4</title>
<polygon fill="lightblue" stroke="lightblue" points="322.529,-313.13 253.027,-313.13 253.027,-277.13 322.529,-277.13 322.529,-313.13"/>
<text text-anchor="middle" x="287.778" y="-290.93" font-family="Times,serif" font-size="14.00">Worker 4</text>
</g>
<!-- Storage 1 -->
<g id="node5" class="node"><title>Storage 1</title>
<ellipse fill="pink" stroke="pink" cx="47.7764" cy="-156.565" rx="47.5537" ry="18"/>
<text text-anchor="middle" x="47.7764" y="-152.365" font-family="Times,serif" font-size="14.00">Storage 1</text>
</g>
<!-- Storage 1&#45;&gt;Worker 1 -->
<g id="edge7" class="edge"><title>Storage 1&#45;&gt;Worker 1</title>
<path fill="none" stroke="gray" d="M68.8238,-140.254C87.4631,-116.939 112.147,-74.3543 123.535,-45.9972"/>
<polygon fill="gray" stroke="gray" points="126.95,-46.8494 127.093,-36.2556 120.375,-44.4477 126.95,-46.8494"/>
<text text-anchor="middle" x="92.6794" y="-97.3255" font-family="Times,serif" font-size="14.00">0</text>
</g>
<!-- Storage 1&#45;&gt;Worker 1 -->
<g id="edge8" class="edge"><title>Storage 1&#45;&gt;Worker 1</title>
<path fill="none" stroke="gray" d="M48.3897,-138.529C56.1009,-114.361 79.4377,-71.8729 99.2502,-44.2319"/>
<polygon fill="gray" stroke="gray" points="102.092,-46.2758 105.265,-36.1671 96.4806,-42.091 102.092,-46.2758"/>
<text text-anchor="middle" x="70.3199" y="-95.5803" font-family="Times,serif" font-size="14.00">1</text>
</g>
<!-- Storage 1&#45;&gt;Worker 1 -->
<g id="edge9" class="edge"><title>Storage 1&#45;&gt;Worker 1</title>
<path fill="none" stroke="gray" d="M58.0712,-138.734C71.7964,-114.961 96.2113,-72.6731 112.197,-44.9851"/>
<polygon fill="gray" stroke="gray" points="115.299,-46.6131 117.267,-36.2028 109.236,-43.1131 115.299,-46.6131"/>
<text text-anchor="middle" x="81.6341" y="-96.0594" font-family="Times,serif" font-size="14.00">2</text>
</g>
<!-- Storage 1&#45;&gt;Worker 2 -->
<g id="edge10" class="edge"><title>Storage 1&#45;&gt;Worker 2</title>
<path fill="none" stroke="gray" d="M48.3897,-174.601C56.1009,-198.769 79.4377,-241.257 99.2502,-268.898"/>
<polygon fill="gray" stroke="gray" points="96.4806,-271.039 105.265,-276.963 102.092,-266.854 96.4806,-271.039"/>
<text text-anchor="middle" x="70.3199" y="-225.95" font-family="Times,serif" font-size="14.00">3</text>
</g>
<!-- Storage 1&#45;&gt;Worker 2 -->
<g id="edge11" class="edge"><title>Storage 1&#45;&gt;Worker 2</title>
<path fill="none" stroke="gray" d="M68.8238,-172.876C87.4631,-196.191 112.147,-238.776 123.535,-267.133"/>
<polygon fill="gray" stroke="gray" points="120.375,-268.682 127.093,-276.874 126.95,-266.281 120.375,-268.682"/>
<text text-anchor="middle" x="92.6794" y="-224.204" font-family="Times,serif" font-size="14.00">4</text>
</g>
<!-- Storage 1&#45;&gt;Worker 2 -->
<g id="edge12" class="edge"><title>Storage 1&#45;&gt;Worker 2</title>
<path fill="none" stroke="gray" d="M58.0712,-174.396C71.7964,-198.169 96.2113,-240.457 112.197,-268.145"/>
<polygon fill="gray" stroke="gray" points="109.236,-270.017 117.267,-276.927 115.299,-266.517 109.236,-270.017"/>
<text text-anchor="middle" x="81.6341" y="-225.471" font-family="Times,serif" font-size="14.00">5</text>
</g>
<!-- Storage 1&#45;&gt;Worker 3 -->
<g id="edge13" class="edge"><title>Storage 1&#45;&gt;Worker 3</title>
<path fill="none" stroke="gray" d="M85.9925,-145.69C136,-122.892 221.86,-73.1054 263.692,-42.4506"/>
<polygon fill="gray" stroke="gray" points="266.063,-45.0446 271.921,-36.2162 261.836,-39.465 266.063,-45.0446"/>
<text text-anchor="middle" x="171.342" y="-98.2702" font-family="Times,serif" font-size="14.00">6</text>
</g>
<!-- Storage 1&#45;&gt;Worker 3 -->
<g id="edge14" class="edge"><title>Storage 1&#45;&gt;Worker 3</title>
<path fill="none" stroke="gray" d="M62.4021,-139.326C97.898,-110.947 188.699,-57.5018 243.686,-31.5996"/>
<polygon fill="gray" stroke="gray" points="245.225,-34.7445 252.852,-27.3909 242.304,-28.383 245.225,-34.7445"/>
<text text-anchor="middle" x="149.544" y="-89.6628" font-family="Times,serif" font-size="14.00">7</text>
</g>
<!-- Storage 1&#45;&gt;Worker 3 -->
<g id="edge15" class="edge"><title>Storage 1&#45;&gt;Worker 3</title>
<path fill="none" stroke="gray" d="M73.9176,-141.472C115.778,-117.304 198.149,-69.7472 247.55,-41.2257"/>
<polygon fill="gray" stroke="gray" points="249.463,-44.1628 256.373,-36.1316 245.963,-38.1006 249.463,-44.1628"/>
<text text-anchor="middle" x="157.234" y="-95.549" font-family="Times,serif" font-size="14.00">8</text>
</g>
<!-- Storage 1&#45;&gt;Worker 4 -->
<g id="edge16" class="edge"><title>Storage 1&#45;&gt;Worker 4</title>
<path fill="none" stroke="gray" d="M62.4021,-173.804C97.898,-202.183 188.699,-255.628 243.686,-281.53"/>
<polygon fill="gray" stroke="gray" points="242.304,-284.747 252.852,-285.739 245.225,-278.385 242.304,-284.747"/>
<text text-anchor="middle" x="149.544" y="-231.867" font-family="Times,serif" font-size="14.00">9</text>
</g>
<!-- Storage 1&#45;&gt;Worker 4 -->
<g id="edge17" class="edge"><title>Storage 1&#45;&gt;Worker 4</title>
<path fill="none" stroke="gray" d="M85.9925,-167.44C136,-190.238 221.86,-240.025 263.692,-270.679"/>
<polygon fill="gray" stroke="gray" points="261.836,-273.665 271.921,-276.914 266.063,-268.085 261.836,-273.665"/>
<text text-anchor="middle" x="167.842" y="-223.26" font-family="Times,serif" font-size="14.00">10</text>
</g>
<!-- Storage 1&#45;&gt;Worker 4 -->
<g id="edge18" class="edge"><title>Storage 1&#45;&gt;Worker 4</title>
<path fill="none" stroke="gray" d="M73.9176,-171.658C115.778,-195.826 198.149,-243.383 247.55,-271.904"/>
<polygon fill="gray" stroke="gray" points="245.963,-275.029 256.373,-276.998 249.463,-268.967 245.963,-275.029"/>
<text text-anchor="middle" x="153.734" y="-209.181" font-family="Times,serif" font-size="14.00">11</text>
</g>
<!-- user -->
<g id="node6" class="node"><title>user</title>
<ellipse fill="none" stroke="purple" cx="595.043" cy="-156.565" rx="29.0318" ry="29.0318"/>
<text text-anchor="middle" x="595.043" y="-152.365" font-family="Times,serif" font-size="14.00">User</text>
</g>
<!-- driver -->
<g id="node7" class="node"><title>driver</title>
<polygon fill="lightgray" stroke="lightgray" points="493.778,-174.565 439.778,-174.565 439.778,-138.565 493.778,-138.565 493.778,-174.565"/>
<text text-anchor="middle" x="466.778" y="-152.365" font-family="Times,serif" font-size="14.00">Driver</text>
</g>
<!-- user&#45;&gt;driver -->
<g id="edge1" class="edge"><title>user&#45;&gt;driver</title>
<path fill="none" stroke="black" d="M565.617,-156.565C547.31,-156.565 523.605,-156.565 503.998,-156.565"/>
<polygon fill="black" stroke="black" points="503.88,-153.065 493.88,-156.565 503.88,-160.065 503.88,-153.065"/>
</g>
<!-- master -->
<g id="node8" class="node"><title>master</title>
<polygon fill="lightgreen" stroke="lightgreen" points="411.97,-174.565 323.587,-174.565 323.587,-138.565 411.97,-138.565 411.97,-174.565"/>
<text text-anchor="middle" x="367.778" y="-152.365" font-family="Times,serif" font-size="14.00">Master Node</text>
</g>
<!-- driver&#45;&gt;master -->
<g id="edge2" class="edge"><title>driver&#45;&gt;master</title>
<path fill="none" stroke="black" d="M439.726,-156.565C434.298,-156.565 428.413,-156.565 422.427,-156.565"/>
<polygon fill="black" stroke="black" points="422.319,-153.065 412.319,-156.565 422.319,-160.065 422.319,-153.065"/>
</g>
<!-- master&#45;&gt;Worker 1 -->
<g id="edge3" class="edge"><title>master&#45;&gt;Worker 1</title>
<path fill="none" stroke="gray" d="M336.402,-138.45C292.652,-113.191 213.392,-67.4301 166.171,-40.1666"/>
<ellipse fill="gray" stroke="gray" cx="162.625" cy="-38.1194" rx="4.00002" ry="4.00002"/>
<text text-anchor="middle" x="215.718" y="-110.308" font-family="Times,serif" font-size="14.00">Read Image:</text>
<text text-anchor="middle" x="215.718" y="-93.5083" font-family="Times,serif" font-size="14.00"> 0 to 2</text>
</g>
<!-- master&#45;&gt;Worker 2 -->
<g id="edge4" class="edge"><title>master&#45;&gt;Worker 2</title>
<path fill="none" stroke="gray" d="M336.402,-174.68C292.652,-199.939 213.392,-245.7 166.171,-272.963"/>
<ellipse fill="gray" stroke="gray" cx="162.625" cy="-275.011" rx="4.00002" ry="4.00002"/>
<text text-anchor="middle" x="215.718" y="-244.822" font-family="Times,serif" font-size="14.00">Read Image:</text>
<text text-anchor="middle" x="215.718" y="-228.022" font-family="Times,serif" font-size="14.00"> 3 to 5</text>
</g>
<!-- master&#45;&gt;Worker 3 -->
<g id="edge5" class="edge"><title>master&#45;&gt;Worker 3</title>
<path fill="none" stroke="gray" d="M357.32,-138.45C343.245,-114.073 318.146,-70.5999 302.262,-43.0876"/>
<ellipse fill="gray" stroke="gray" cx="300.239" cy="-39.5835" rx="4.00002" ry="4.00002"/>
<text text-anchor="middle" x="294.223" y="-111.769" font-family="Times,serif" font-size="14.00">Read Image:</text>
<text text-anchor="middle" x="294.223" y="-94.9688" font-family="Times,serif" font-size="14.00"> 6 to 8</text>
</g>
<!-- master&#45;&gt;Worker 4 -->
<g id="edge6" class="edge"><title>master&#45;&gt;Worker 4</title>
<path fill="none" stroke="gray" d="M357.32,-174.68C343.245,-199.057 318.146,-242.53 302.262,-270.042"/>
<ellipse fill="gray" stroke="gray" cx="300.239" cy="-273.546" rx="4.00002" ry="4.00002"/>
<text text-anchor="middle" x="294.223" y="-243.361" font-family="Times,serif" font-size="14.00">Read Image:</text>
<text text-anchor="middle" x="294.223" y="-226.561" font-family="Times,serif" font-size="14.00"> 9 to 11</text>
</g>
</g>
</svg>
