
<svg width="659pt" height="836pt"
 viewBox="0.00 0.00 659.00 836.00" xmlns="http://www.w3.org/2000/svg" xmlns:xlink="http://www.w3.org/1999/xlink">
<g id="graph0" class="graph" transform="scale(1 1) rotate(0) translate(4 832)">
<title>%3</title>
<polygon fill="white" stroke="none" points="-4,4 -4,-832 655,-832 655,4 -4,4"/>
<!-- Query -->
<g id="node1" class="node"><title>Query</title>
<polygon fill="red" stroke="red" points="453,-828 399,-828 399,-792 453,-792 453,-828"/>
<text text-anchor="middle" x="426" y="-805.8" font-family="Times,serif" font-size="14.00">Query</text>
</g>
<!-- Spark SQL -->
<g id="node15" class="node"><title>Spark SQL</title>
<polygon fill="lightsteelblue" stroke="lightsteelblue" points="464.951,-756 387.049,-756 387.049,-720 464.951,-720 464.951,-756"/>
<text text-anchor="middle" x="426" y="-733.8" font-family="Times,serif" font-size="14.00">Spark SQL</text>
</g>
<!-- Query&#45;&gt;Spark SQL -->
<g id="edge34" class="edge"><title>Query&#45;&gt;Spark SQL</title>
<path fill="none" stroke="red" d="M426,-791.697C426,-783.983 426,-774.712 426,-766.112"/>
<polygon fill="red" stroke="red" points="429.5,-766.104 426,-756.104 422.5,-766.104 429.5,-766.104"/>
</g>
<!-- Private Database -->
<g id="node2" class="node"><title>Private Database</title>
<polygon fill="red" stroke="red" points="594.341,-756 483.659,-756 483.659,-720 594.341,-720 594.341,-756"/>
<text text-anchor="middle" x="539" y="-733.8" font-family="Times,serif" font-size="14.00">Private Database</text>
</g>
<!-- SDB -->
<g id="node13" class="node"><title>SDB</title>
<polygon fill="lightgreen" stroke="lightgreen" points="496.454,-684 355.546,-684 355.546,-648 496.454,-648 496.454,-684"/>
<text text-anchor="middle" x="426" y="-661.8" font-family="Times,serif" font-size="14.00">Spark Image Database</text>
</g>
<!-- Private Database&#45;&gt;SDB -->
<g id="edge7" class="edge"><title>Private Database&#45;&gt;SDB</title>
<path fill="none" stroke="black" d="M511.357,-719.876C496.172,-710.469 477.185,-698.708 460.977,-688.667"/>
<ellipse fill="black" stroke="black" cx="457.15" cy="-686.296" rx="4.00002" ry="4.00002"/>
</g>
<!-- Worker 1 -->
<g id="node3" class="node"><title>Worker 1</title>
<polygon fill="lightblue" stroke="lightblue" points="439.437,-324 370.563,-324 370.563,-288 439.437,-288 439.437,-324"/>
<text text-anchor="middle" x="405" y="-301.8" font-family="Times,serif" font-size="14.00">Worker 1</text>
</g>
<!-- Worker 2 -->
<g id="node4" class="node"><title>Worker 2</title>
<polygon fill="lightblue" stroke="lightblue" points="285.437,-252 216.563,-252 216.563,-216 285.437,-216 285.437,-252"/>
<text text-anchor="middle" x="251" y="-229.8" font-family="Times,serif" font-size="14.00">Worker 2</text>
</g>
<!-- Worker 1&#45;&gt;Worker 2 -->
<g id="edge40" class="edge"><title>Worker 1&#45;&gt;Worker 2</title>
<path fill="none" stroke="gray" d="M370.421,-293.908C345.083,-283.927 311.388,-268.975 286.01,-256.634"/>
<polygon fill="gray" stroke="gray" points="287.241,-253.338 276.725,-252.047 284.141,-259.614 287.241,-253.338"/>
</g>
<!-- Worker 3 -->
<g id="node5" class="node"><title>Worker 3</title>
<polygon fill="lightblue" stroke="lightblue" points="546.437,-180 477.563,-180 477.563,-144 546.437,-144 546.437,-180"/>
<text text-anchor="middle" x="512" y="-157.8" font-family="Times,serif" font-size="14.00">Worker 3</text>
</g>
<!-- Worker 1&#45;&gt;Worker 3 -->
<g id="edge41" class="edge"><title>Worker 1&#45;&gt;Worker 3</title>
<path fill="none" stroke="gray" d="M428.195,-287.956C441.648,-278.865 457.854,-266.545 469,-252 483.157,-233.526 492.023,-208.472 498.632,-189.653"/>
<polygon fill="gray" stroke="gray" points="501.946,-190.78 501.994,-180.185 495.35,-188.437 501.946,-190.78"/>
</g>
<!-- Worker 1&#45;&gt;Worker 3 -->
<g id="edge51" class="edge"><title>Worker 1&#45;&gt;Worker 3</title>
<path fill="none" stroke="gray" d="M439.466,-290.866C455.985,-281.575 474.616,-268.161 487,-252 501.026,-233.697 509.859,-208.934 513.542,-190.175"/>
<polygon fill="gray" stroke="gray" points="517.017,-190.602 515.087,-180.185 510.099,-189.532 517.017,-190.602"/>
</g>
<!-- Storage 1 -->
<g id="node7" class="node"><title>Storage 1</title>
<ellipse fill="pink" stroke="pink" cx="603" cy="-18" rx="47.1674" ry="18"/>
<text text-anchor="middle" x="603" y="-13.8" font-family="Times,serif" font-size="14.00">Storage 1</text>
</g>
<!-- Worker 1&#45;&gt;Storage 1 -->
<g id="edge15" class="edge"><title>Worker 1&#45;&gt;Storage 1</title>
<path fill="none" stroke="gray" d="M431.441,-287.787C449.872,-278.657 473.674,-266.353 493,-252 528.336,-225.756 539.363,-218.331 561,-180 585.357,-136.851 587.608,-77.2853 592.391,-44.0306"/>
<ellipse fill="gray" stroke="gray" cx="593.101" cy="-39.7231" rx="4.00001" ry="4.00001"/>
</g>
<!-- Worker 1&#45;&gt;Storage 1 -->
<g id="edge20" class="edge"><title>Worker 1&#45;&gt;Storage 1</title>
<path fill="none" stroke="gray" d="M439.682,-291.351C461.279,-281.984 489.031,-268.316 511,-252 546.336,-225.756 557.363,-218.331 579,-180 603.229,-137.077 605.584,-77.9086 604.624,-44.5551"/>
<ellipse fill="gray" stroke="gray" cx="604.456" cy="-40.259" rx="4" ry="4"/>
</g>
<!-- Worker 1&#45;&gt;Storage 1 -->
<g id="edge33" class="edge"><title>Worker 1&#45;&gt;Storage 1</title>
<path fill="none" stroke="gray" d="M439.497,-297.015C466.465,-288.015 502.076,-271.996 529,-252 564.336,-225.756 575.363,-218.331 597,-180 621.461,-136.667 623.627,-76.7781 616.738,-43.6076"/>
<ellipse fill="gray" stroke="gray" cx="615.761" cy="-39.6592" rx="4.00001" ry="4.00001"/>
</g>
<!-- Storage 2 -->
<g id="node8" class="node"><title>Storage 2</title>
<ellipse fill="pink" stroke="pink" cx="412" cy="-162" rx="47.1674" ry="18"/>
<text text-anchor="middle" x="412" y="-157.8" font-family="Times,serif" font-size="14.00">Storage 2</text>
</g>
<!-- Worker 1&#45;&gt;Storage 2 -->
<g id="edge17" class="edge"><title>Worker 1&#45;&gt;Storage 2</title>
<path fill="none" stroke="gray" d="M431.124,-287.816C442.579,-278.692 454.808,-266.386 461,-252 467.326,-237.304 466.832,-230.899 461,-216 456.241,-203.843 447.241,-192.803 438.239,-183.985"/>
<ellipse fill="gray" stroke="gray" cx="435.296" cy="-181.246" rx="4.00002" ry="4.00002"/>
</g>
<!-- Storage 3 -->
<g id="node9" class="node"><title>Storage 3</title>
<ellipse fill="pink" stroke="pink" cx="47" cy="-18" rx="47.1674" ry="18"/>
<text text-anchor="middle" x="47" y="-13.8" font-family="Times,serif" font-size="14.00">Storage 3</text>
</g>
<!-- Worker 1&#45;&gt;Storage 3 -->
<g id="edge24" class="edge"><title>Worker 1&#45;&gt;Storage 3</title>
<path fill="none" stroke="gray" d="M370.554,-302.532C302.606,-295.572 151.935,-269.975 74,-180 40.6356,-141.481 36.2589,-78.7354 39.7142,-44.0444"/>
<ellipse fill="gray" stroke="gray" cx="40.2469" cy="-39.8294" rx="4.00001" ry="4.00001"/>
</g>
<!-- Worker 1&#45;&gt;Storage 3 -->
<g id="edge26" class="edge"><title>Worker 1&#45;&gt;Storage 3</title>
<path fill="none" stroke="gray" d="M370.489,-301.332C305.61,-292.83 166.009,-265.442 92,-180 58.8084,-141.681 54.3051,-79.3849 51.7118,-44.5859"/>
<ellipse fill="gray" stroke="gray" cx="51.385" cy="-40.3506" rx="4" ry="4"/>
</g>
<!-- Storage 5 -->
<g id="node11" class="node"><title>Storage 5</title>
<ellipse fill="pink" stroke="pink" cx="405" cy="-234" rx="47.1674" ry="18"/>
<text text-anchor="middle" x="405" y="-229.8" font-family="Times,serif" font-size="14.00">Storage 5</text>
</g>
<!-- Worker 1&#45;&gt;Storage 5 -->
<g id="edge19" class="edge"><title>Worker 1&#45;&gt;Storage 5</title>
<path fill="none" stroke="gray" d="M405,-287.697C405,-279.389 405,-269.277 405,-260.141"/>
<ellipse fill="gray" stroke="gray" cx="405" cy="-256.104" rx="4" ry="4"/>
</g>
<!-- Worker 2&#45;&gt;Worker 1 -->
<g id="edge43" class="edge"><title>Worker 2&#45;&gt;Worker 1</title>
<path fill="none" stroke="gray" d="M285.445,-250.657C307.812,-260.823 337.162,-274.164 361.184,-285.083"/>
<polygon fill="gray" stroke="gray" points="359.887,-288.339 370.439,-289.291 362.784,-281.966 359.887,-288.339"/>
</g>
<!-- Worker 2&#45;&gt;Worker 1 -->
<g id="edge46" class="edge"><title>Worker 2&#45;&gt;Worker 1</title>
<path fill="none" stroke="gray" d="M285.489,-246.056C310.784,-256.017 344.44,-270.947 369.83,-283.289"/>
<polygon fill="gray" stroke="gray" points="368.605,-286.587 379.122,-287.876 371.704,-280.311 368.605,-286.587"/>
</g>
<!-- Worker 2&#45;&gt;Worker 2 -->
<g id="edge44" class="edge"><title>Worker 2&#45;&gt;Worker 2</title>
<path fill="none" stroke="gray" d="M285.504,-238.482C295.383,-238.307 303,-236.813 303,-234 303,-232.286 300.171,-231.062 295.726,-230.327"/>
<polygon fill="gray" stroke="gray" points="295.749,-226.818 285.504,-229.518 295.197,-233.796 295.749,-226.818"/>
</g>
<!-- Worker 2&#45;&gt;Worker 2 -->
<g id="edge52" class="edge"><title>Worker 2&#45;&gt;Worker 2</title>
<path fill="none" stroke="gray" d="M285.576,-242.629C304.112,-244.095 321,-241.219 321,-234 321,-228.135 309.852,-225.136 295.728,-225.005"/>
<polygon fill="gray" stroke="gray" points="295.443,-221.512 285.576,-225.371 295.695,-228.508 295.443,-221.512"/>
</g>
<!-- Worker 2&#45;&gt;Worker 2 -->
<g id="edge55" class="edge"><title>Worker 2&#45;&gt;Worker 2</title>
<path fill="none" stroke="gray" d="M285.324,-245.756C311.897,-250.153 339,-246.234 339,-234 339,-223.295 318.25,-218.956 295.26,-220.985"/>
<polygon fill="gray" stroke="gray" points="294.805,-217.514 285.324,-222.244 295.685,-224.459 294.805,-217.514"/>
</g>
<!-- Worker 2&#45;&gt;Worker 3 -->
<g id="edge53" class="edge"><title>Worker 2&#45;&gt;Worker 3</title>
<path fill="none" stroke="gray" d="M285.578,-225.999C328.72,-216.934 404.543,-199.917 468,-180 468.098,-179.969 468.195,-179.939 468.293,-179.908"/>
<polygon fill="gray" stroke="gray" points="469.2,-183.296 477.562,-176.79 466.968,-176.661 469.2,-183.296"/>
</g>
<!-- Worker 4 -->
<g id="node6" class="node"><title>Worker 4</title>
<polygon fill="lightblue" stroke="lightblue" points="325.437,-108 256.563,-108 256.563,-72 325.437,-72 325.437,-108"/>
<text text-anchor="middle" x="291" y="-85.8" font-family="Times,serif" font-size="14.00">Worker 4</text>
</g>
<!-- Worker 2&#45;&gt;Worker 4 -->
<g id="edge50" class="edge"><title>Worker 2&#45;&gt;Worker 4</title>
<path fill="none" stroke="gray" d="M232.902,-215.871C226.796,-191.137 238.49,-145.242 257.188,-116.512"/>
<polygon fill="gray" stroke="gray" points="260.182,-118.344 263.203,-108.189 254.509,-114.244 260.182,-118.344"/>
</g>
<!-- Worker 2&#45;&gt;Worker 4 -->
<g id="edge54" class="edge"><title>Worker 2&#45;&gt;Worker 4</title>
<path fill="none" stroke="gray" d="M260.409,-215.871C269.826,-191.564 282.713,-146.819 288.823,-118.013"/>
<polygon fill="gray" stroke="gray" points="292.26,-118.676 290.749,-108.189 285.391,-117.329 292.26,-118.676"/>
</g>
<!-- Worker 2&#45;&gt;Worker 4 -->
<g id="edge57" class="edge"><title>Worker 2&#45;&gt;Worker 4</title>
<path fill="none" stroke="gray" d="M269.578,-215.871C284.071,-191.67 297.469,-147.211 299.661,-118.393"/>
<polygon fill="gray" stroke="gray" points="303.165,-118.278 299.931,-108.189 296.167,-118.093 303.165,-118.278"/>
</g>
<!-- Worker 2&#45;&gt;Storage 1 -->
<g id="edge18" class="edge"><title>Worker 2&#45;&gt;Storage 1</title>
<path fill="none" stroke="gray" d="M285.566,-226.931C304.082,-223.682 327.284,-219.617 348,-216 439.99,-199.94 485.205,-242.037 555,-180 575.302,-161.955 591.47,-84.9459 598.773,-44.3227"/>
<ellipse fill="gray" stroke="gray" cx="599.502" cy="-40.1802" rx="4.00001" ry="4.00001"/>
</g>
<!-- Worker 2&#45;&gt;Storage 2 -->
<g id="edge27" class="edge"><title>Worker 2&#45;&gt;Storage 2</title>
<path fill="none" stroke="gray" d="M278.591,-215.876C303.604,-203.912 340.135,-188.139 368.895,-176.942"/>
<ellipse fill="gray" stroke="gray" cx="372.672" cy="-175.491" rx="4.00001" ry="4.00001"/>
</g>
<!-- Worker 2&#45;&gt;Storage 2 -->
<g id="edge30" class="edge"><title>Worker 2&#45;&gt;Storage 2</title>
<path fill="none" stroke="gray" d="M285.539,-217.983C311.692,-206.612 347.58,-191.009 374.445,-179.328"/>
<ellipse fill="gray" stroke="gray" cx="378.45" cy="-177.587" rx="4.00002" ry="4.00002"/>
</g>
<!-- Worker 2&#45;&gt;Storage 2 -->
<g id="edge31" class="edge"><title>Worker 2&#45;&gt;Storage 2</title>
<path fill="none" stroke="gray" d="M285.471,-222.369C314.211,-211.531 354.051,-194.505 381.601,-181.46"/>
<ellipse fill="gray" stroke="gray" cx="385.421" cy="-179.626" rx="4.00002" ry="4.00002"/>
</g>
<!-- Worker 2&#45;&gt;Storage 3 -->
<g id="edge14" class="edge"><title>Worker 2&#45;&gt;Storage 3</title>
<path fill="none" stroke="gray" d="M216.572,-228.999C183.442,-223.228 134.46,-209.786 104,-180 65.5719,-142.422 48.6791,-79.309 44.9708,-44.3069"/>
<ellipse fill="gray" stroke="gray" cx="44.6274" cy="-40.0335" rx="4" ry="4"/>
</g>
<!-- Worker 2&#45;&gt;Storage 3 -->
<g id="edge29" class="edge"><title>Worker 2&#45;&gt;Storage 3</title>
<path fill="none" stroke="gray" d="M216.542,-226.062C187.945,-219.095 148.148,-205.57 122,-180 83.3091,-142.165 66.449,-78.4446 56.7289,-43.5927"/>
<ellipse fill="gray" stroke="gray" cx="55.6109" cy="-39.6441" rx="4.00001" ry="4.00001"/>
</g>
<!-- Storage 4 -->
<g id="node10" class="node"><title>Storage 4</title>
<ellipse fill="pink" stroke="pink" cx="170" cy="-162" rx="47.1674" ry="18"/>
<text text-anchor="middle" x="170" y="-157.8" font-family="Times,serif" font-size="14.00">Storage 4</text>
</g>
<!-- Worker 2&#45;&gt;Storage 4 -->
<g id="edge21" class="edge"><title>Worker 2&#45;&gt;Storage 4</title>
<path fill="none" stroke="gray" d="M230.978,-215.697C219.91,-206.132 206.073,-194.174 194.379,-184.068"/>
<ellipse fill="gray" stroke="gray" cx="191.16" cy="-181.287" rx="4.00002" ry="4.00002"/>
</g>
<!-- Worker 3&#45;&gt;Worker 4 -->
<g id="edge39" class="edge"><title>Worker 3&#45;&gt;Worker 4</title>
<path fill="none" stroke="gray" d="M477.465,-156.054C464.163,-152.517 451.924,-147.74 441,-144 405.69,-131.913 365.916,-119.865 335.563,-110.318"/>
<polygon fill="gray" stroke="gray" points="336.241,-106.861 325.65,-107.179 334.128,-113.534 336.241,-106.861"/>
</g>
<!-- Worker 3&#45;&gt;Worker 4 -->
<g id="edge47" class="edge"><title>Worker 3&#45;&gt;Worker 4</title>
<path fill="none" stroke="gray" d="M477.466,-144.16C477.31,-144.106 477.155,-144.053 477,-144 429.222,-127.645 373.269,-111.362 335.172,-101.247"/>
<polygon fill="gray" stroke="gray" points="335.965,-97.837 325.405,-98.6877 334.191,-104.608 335.965,-97.837"/>
</g>
<!-- Worker 3&#45;&gt;Worker 4 -->
<g id="edge56" class="edge"><title>Worker 3&#45;&gt;Worker 4</title>
<path fill="none" stroke="gray" d="M494.545,-143.844C441.63,-125.751 378.795,-107.769 335.617,-98.1547"/>
<polygon fill="gray" stroke="gray" points="336.139,-94.687 325.626,-96.008 334.668,-101.531 336.139,-94.687"/>
</g>
<!-- Worker 3&#45;&gt;Storage 1 -->
<g id="edge32" class="edge"><title>Worker 3&#45;&gt;Storage 1</title>
<path fill="none" stroke="gray" d="M520.4,-143.776C529.57,-125.477 545.083,-95.9427 561,-72 567.799,-61.7724 576.055,-51.0535 583.441,-41.9527"/>
<ellipse fill="gray" stroke="gray" cx="586.091" cy="-38.731" rx="4.00002" ry="4.00002"/>
</g>
<!-- Storage 6 -->
<g id="node12" class="node"><title>Storage 6</title>
<ellipse fill="pink" stroke="pink" cx="357" cy="-18" rx="47.1674" ry="18"/>
<text text-anchor="middle" x="357" y="-13.8" font-family="Times,serif" font-size="14.00">Storage 6</text>
</g>
<!-- Worker 3&#45;&gt;Storage 6 -->
<g id="edge25" class="edge"><title>Worker 3&#45;&gt;Storage 6</title>
<path fill="none" stroke="gray" d="M493.303,-143.871C465.039,-117.978 411.461,-68.893 380.565,-40.5887"/>
<ellipse fill="gray" stroke="gray" cx="377.283" cy="-37.5822" rx="4.00002" ry="4.00002"/>
</g>
<!-- Worker 4&#45;&gt;Worker 2 -->
<g id="edge45" class="edge"><title>Worker 4&#45;&gt;Worker 2</title>
<path fill="none" stroke="gray" d="M272.385,-108.189C257.895,-132.424 244.507,-176.888 242.334,-205.679"/>
<polygon fill="gray" stroke="gray" points="238.83,-205.785 242.071,-215.871 245.828,-205.965 238.83,-205.785"/>
</g>
<!-- Worker 4&#45;&gt;Worker 2 -->
<g id="edge48" class="edge"><title>Worker 4&#45;&gt;Worker 2</title>
<path fill="none" stroke="gray" d="M281.567,-108.189C272.186,-132.424 259.373,-176.888 253.242,-205.679"/>
<polygon fill="gray" stroke="gray" points="249.733,-205.384 251.24,-215.871 256.602,-206.733 249.733,-205.384"/>
</g>
<!-- Worker 4&#45;&gt;Worker 2 -->
<g id="edge58" class="edge"><title>Worker 4&#45;&gt;Worker 2</title>
<path fill="none" stroke="gray" d="M309.112,-108.189C315.19,-132.958 303.476,-178.856 284.766,-207.558"/>
<polygon fill="gray" stroke="gray" points="281.777,-205.719 278.747,-215.871 287.447,-209.824 281.777,-205.719"/>
</g>
<!-- Worker 4&#45;&gt;Worker 3 -->
<g id="edge42" class="edge"><title>Worker 4&#45;&gt;Worker 3</title>
<path fill="none" stroke="gray" d="M325.623,-102.517C359.827,-112.692 413.174,-128.313 459,-144 461.852,-144.976 464.794,-146.023 467.767,-147.101"/>
<polygon fill="gray" stroke="gray" points="466.706,-150.44 477.3,-150.595 469.115,-143.867 466.706,-150.44"/>
</g>
<!-- Worker 4&#45;&gt;Worker 4 -->
<g id="edge49" class="edge"><title>Worker 4&#45;&gt;Worker 4</title>
<path fill="none" stroke="gray" d="M325.504,-103.447C335.383,-102.92 343,-98.4375 343,-90 343,-84.7266 340.025,-80.9981 335.381,-78.8145"/>
<polygon fill="gray" stroke="gray" points="336.033,-75.3733 325.504,-76.5527 334.471,-82.1967 336.033,-75.3733"/>
</g>
<!-- Worker 4&#45;&gt;Storage 1 -->
<g id="edge22" class="edge"><title>Worker 4&#45;&gt;Storage 1</title>
<path fill="none" stroke="gray" d="M325.582,-81.2413C381.573,-68.6791 492.178,-43.864 555.508,-29.6553"/>
<ellipse fill="gray" stroke="gray" cx="559.463" cy="-28.7679" rx="4.00001" ry="4.00001"/>
</g>
<!-- Worker 4&#45;&gt;Storage 3 -->
<g id="edge16" class="edge"><title>Worker 4&#45;&gt;Storage 3</title>
<path fill="none" stroke="gray" d="M256.467,-80.4166C212.573,-68.5447 137.102,-46.9783 89.6733,-32.8209"/>
<ellipse fill="gray" stroke="gray" cx="85.5665" cy="-31.5901" rx="4.00001" ry="4.00001"/>
</g>
<!-- Worker 4&#45;&gt;Storage 3 -->
<g id="edge23" class="edge"><title>Worker 4&#45;&gt;Storage 3</title>
<path fill="none" stroke="gray" d="M256.654,-77.6755C213.91,-64.7999 141.005,-43.8771 93.3557,-30.8052"/>
<ellipse fill="gray" stroke="gray" cx="89.2089" cy="-29.6725" rx="4.00001" ry="4.00001"/>
</g>
<!-- Worker 4&#45;&gt;Storage 6 -->
<g id="edge28" class="edge"><title>Worker 4&#45;&gt;Storage 6</title>
<path fill="none" stroke="gray" d="M307.315,-71.6966C316.039,-62.443 326.876,-50.9496 336.2,-41.0604"/>
<ellipse fill="gray" stroke="gray" cx="339.034" cy="-38.0549" rx="4.00002" ry="4.00002"/>
</g>
<!-- SIL -->
<g id="node14" class="node"><title>SIL</title>
<polygon fill="lightgreen" stroke="lightgreen" points="427.46,-612 304.54,-612 304.54,-576 427.46,-576 427.46,-612"/>
<text text-anchor="middle" x="366" y="-589.8" font-family="Times,serif" font-size="14.00">Spark Image Layer</text>
</g>
<!-- SDB&#45;&gt;SIL -->
<g id="edge36" class="edge"><title>SDB&#45;&gt;SIL</title>
<path fill="none" stroke="red" d="M411.169,-647.697C403.975,-639.305 395.203,-629.07 387.31,-619.861"/>
<polygon fill="red" stroke="red" points="389.826,-617.419 380.661,-612.104 384.511,-621.975 389.826,-617.419"/>
</g>
<!-- SDB&#45;&gt;Spark SQL -->
<g id="edge1" class="edge"><title>SDB&#45;&gt;Spark SQL</title>
<path fill="none" stroke="black" d="M431.895,-684.104C432.762,-692.383 432.97,-702.488 432.517,-711.64"/>
<ellipse fill="black" stroke="black" cx="432.214" cy="-715.708" rx="4" ry="4"/>
</g>
<!-- Spark Core -->
<g id="node16" class="node"><title>Spark Core</title>
<polygon fill="lightsteelblue" stroke="lightsteelblue" points="405.526,-468 326.474,-468 326.474,-432 405.526,-432 405.526,-468"/>
<text text-anchor="middle" x="366" y="-445.8" font-family="Times,serif" font-size="14.00">Spark Core</text>
</g>
<!-- SDB&#45;&gt;Spark Core -->
<g id="edge8" class="edge"><title>SDB&#45;&gt;Spark Core</title>
<path fill="none" stroke="black" d="M438.617,-647.768C459.555,-616.874 496.491,-550.911 468,-504 455.967,-484.187 433.853,-471.442 413.284,-463.43"/>
<ellipse fill="black" stroke="black" cx="409.258" cy="-461.959" rx="4.00001" ry="4.00001"/>
</g>
<!-- SIL&#45;&gt;Spark Core -->
<g id="edge2" class="edge"><title>SIL&#45;&gt;Spark Core</title>
<path fill="none" stroke="black" d="M361.416,-575.871C358.801,-551.137 358.554,-505.242 360.675,-476.512"/>
<ellipse fill="black" stroke="black" cx="361.058" cy="-472.174" rx="4" ry="4"/>
</g>
<!-- SIL&#45;&gt;Spark Core -->
<g id="edge37" class="edge"><title>SIL&#45;&gt;Spark Core</title>
<path fill="none" stroke="red" d="M370.584,-575.871C373.143,-551.67 373.434,-507.211 371.459,-478.393"/>
<polygon fill="red" stroke="red" points="374.926,-477.857 370.591,-468.189 367.951,-478.45 374.926,-477.857"/>
</g>
<!-- MLLib -->
<g id="node17" class="node"><title>MLLib</title>
<polygon fill="lightsteelblue" stroke="lightsteelblue" points="459.331,-540 402.669,-540 402.669,-504 459.331,-504 459.331,-540"/>
<text text-anchor="middle" x="431" y="-517.8" font-family="Times,serif" font-size="14.00">MLLib</text>
</g>
<!-- SIL&#45;&gt;MLLib -->
<g id="edge5" class="edge"><title>SIL&#45;&gt;MLLib</title>
<path fill="none" stroke="black" d="M382.067,-575.697C390.332,-566.796 400.521,-555.823 409.458,-546.199"/>
<ellipse fill="black" stroke="black" cx="412.396" cy="-543.036" rx="4.00002" ry="4.00002"/>
</g>
<!-- GraphX -->
<g id="node18" class="node"><title>GraphX</title>
<polygon fill="lightsteelblue" stroke="lightsteelblue" points="328.316,-540 267.684,-540 267.684,-504 328.316,-504 328.316,-540"/>
<text text-anchor="middle" x="298" y="-517.8" font-family="Times,serif" font-size="14.00">GraphX</text>
</g>
<!-- SIL&#45;&gt;GraphX -->
<g id="edge6" class="edge"><title>SIL&#45;&gt;GraphX</title>
<path fill="none" stroke="black" d="M349.191,-575.697C340.462,-566.711 329.682,-555.614 320.269,-545.924"/>
<ellipse fill="black" stroke="black" cx="317.403" cy="-542.973" rx="4.00002" ry="4.00002"/>
</g>
<!-- Spark SQL&#45;&gt;SDB -->
<g id="edge35" class="edge"><title>Spark SQL&#45;&gt;SDB</title>
<path fill="none" stroke="red" d="M420.084,-719.697C419.289,-711.983 419.062,-702.712 419.405,-694.112"/>
<polygon fill="red" stroke="red" points="422.898,-694.324 420.105,-684.104 415.915,-693.836 422.898,-694.324"/>
</g>
<!-- Master Cloud Node -->
<g id="node19" class="node"><title>Master Cloud Node</title>
<polygon fill="lightsteelblue" stroke="lightsteelblue" points="429.314,-396 302.686,-396 302.686,-360 429.314,-360 429.314,-396"/>
<text text-anchor="middle" x="366" y="-373.8" font-family="Times,serif" font-size="14.00">Master Cloud Node</text>
</g>
<!-- Spark Core&#45;&gt;Master Cloud Node -->
<g id="edge9" class="edge"><title>Spark Core&#45;&gt;Master Cloud Node</title>
<path fill="none" stroke="black" d="M360.084,-431.697C359.227,-423.389 359.031,-413.277 359.494,-404.141"/>
<ellipse fill="black" stroke="black" cx="359.802" cy="-400.093" rx="4" ry="4"/>
</g>
<!-- Spark Core&#45;&gt;Master Cloud Node -->
<g id="edge38" class="edge"><title>Spark Core&#45;&gt;Master Cloud Node</title>
<path fill="none" stroke="red" d="M371.916,-431.697C372.711,-423.983 372.938,-414.712 372.595,-406.112"/>
<polygon fill="red" stroke="red" points="376.085,-405.836 371.895,-396.104 369.102,-406.324 376.085,-405.836"/>
</g>
<!-- MLLib&#45;&gt;Spark Core -->
<g id="edge3" class="edge"><title>MLLib&#45;&gt;Spark Core</title>
<path fill="none" stroke="black" d="M414.933,-503.697C406.668,-494.796 396.479,-483.823 387.542,-474.199"/>
<ellipse fill="black" stroke="black" cx="384.604" cy="-471.036" rx="4.00002" ry="4.00002"/>
</g>
<!-- GraphX&#45;&gt;Spark Core -->
<g id="edge4" class="edge"><title>GraphX&#45;&gt;Spark Core</title>
<path fill="none" stroke="black" d="M314.809,-503.697C323.538,-494.711 334.318,-483.614 343.731,-473.924"/>
<ellipse fill="black" stroke="black" cx="346.597" cy="-470.973" rx="4.00002" ry="4.00002"/>
</g>
<!-- Master Cloud Node&#45;&gt;Worker 1 -->
<g id="edge10" class="edge"><title>Master Cloud Node&#45;&gt;Worker 1</title>
<path fill="none" stroke="gray" d="M375.64,-359.697C380.41,-351.135 386.249,-340.656 391.459,-331.304"/>
<ellipse fill="gray" stroke="gray" cx="393.524" cy="-327.599" rx="4.00002" ry="4.00002"/>
</g>
<!-- Master Cloud Node&#45;&gt;Worker 2 -->
<g id="edge11" class="edge"><title>Master Cloud Node&#45;&gt;Worker 2</title>
<path fill="none" stroke="gray" d="M352.128,-359.871C331.665,-334.604 293.319,-287.254 270.177,-258.679"/>
<ellipse fill="gray" stroke="gray" cx="267.438" cy="-255.298" rx="4.00002" ry="4.00002"/>
</g>
<!-- Master Cloud Node&#45;&gt;Worker 3 -->
<g id="edge12" class="edge"><title>Master Cloud Node&#45;&gt;Worker 3</title>
<path fill="none" stroke="gray" d="M401.181,-359.9C437.506,-339.896 491.542,-302.916 511,-252 518.774,-231.657 518.292,-206.738 516.287,-188.447"/>
<ellipse fill="gray" stroke="gray" cx="515.719" cy="-184.017" rx="4.00001" ry="4.00001"/>
</g>
<!-- Master Cloud Node&#45;&gt;Worker 4 -->
<g id="edge13" class="edge"><title>Master Cloud Node&#45;&gt;Worker 4</title>
<path fill="none" stroke="gray" d="M325.248,-359.826C265.503,-332.097 156.52,-271.186 113,-180 106.108,-165.56 103.436,-156.827 113,-144 129.261,-122.191 201.419,-106.106 248.722,-97.6742"/>
<ellipse fill="gray" stroke="gray" cx="252.726" cy="-96.9757" rx="4.00001" ry="4.00001"/>
</g>
</g>
</svg>
