<?xml version="1.0" standalone="no"?>
<!DOCTYPE svg PUBLIC "-//W3C//DTD SVG 20010904//EN"
 "http://www.w3.org/TR/2001/REC-SVG-20010904/DTD/svg10.dtd">
<svg version="1.0" xmlns="http://www.w3.org/2000/svg"
 width="366.000000pt" height="366.000000pt" viewBox="0 0 366.000000 366.000000"
 preserveAspectRatio="xMidYMid meet">
<metadata>
Created by potrace 1.11, written by Peter Selinger 2001-2013
</metadata>
<g transform="translate(0.000000,366.000000) scale(0.100000,-0.100000)"
fill="#000000" stroke="none">
<path d="M2410 3130 c-376 -77 -623 -372 -675 -805 -8 -69 -8 -289 0 -350 35
-267 122 -464 269 -611 100 -100 256 -188 369 -209 34 -7 41 -14 67 -65 68
-134 218 -283 355 -352 68 -35 185 -80 185 -73 0 3 8 1 18 -4 31 -17 125 -26
262 -26 166 0 273 16 325 50 21 13 21 13 -18 173 l-40 159 -46 -15 c-29 -9
-89 -15 -166 -15 -127 -1 -211 14 -291 54 -50 26 -136 98 -132 111 2 5 28 18
57 29 79 27 186 95 259 164 194 180 297 464 294 810 0 81 -10 210 -17 235 -1
3 -5 23 -9 45 -12 66 -57 196 -89 260 -120 240 -318 388 -589 439 -104 20
-282 18 -388 -4z m341 -386 c139 -55 228 -175 276 -372 24 -100 25 -334 2
-442 -59 -274 -204 -420 -416 -421 -255 -1 -419 229 -428 601 -8 316 86 537
264 621 24 11 63 24 85 29 58 12 166 4 217 -16z"/>
<path d="M756 3048 c-8 -13 -44 -72 -80 -133 -37 -60 -71 -117 -76 -125 -5 -8
-73 -121 -151 -250 -78 -129 -193 -320 -257 -425 l-115 -190 -2 -152 c-1 -100
2 -154 9 -156 6 -2 192 -3 414 -3 l402 1 0 -227 0 -228 205 0 205 0 0 224 c0
170 3 225 13 228 6 3 56 4 110 3 l97 -1 0 168 0 168 -110 0 -110 0 0 560 0
560 -270 0 c-269 0 -270 0 -284 -22z m158 -405 c-3 -27 -7 -192 -10 -368 -4
-176 -7 -321 -9 -323 -1 -1 -90 -1 -197 0 l-195 3 124 205 c104 173 263 474
263 499 0 6 21 31 26 31 1 0 0 -21 -2 -47z"/>
</g>
</svg>
