<svg width="450" height="450" viewBox="0 0 450 450" xmlns="http://www.w3.org/2000/svg"><title>Favicon</title><path d="M113.17 234.983V179.55c0-7.186.192-15.655.577-25.407.385-9.752.834-18.22 1.348-25.406h-1.54a433.011 433.011 0 0 1-9.624 18.862c-3.336 6.16-6.8 12.575-10.393 19.247l-44.654 68.136h64.286zm72.37 34.26h-30.796v63.131H113.17v-63.131H5v-30.026l97.006-151.669h52.738v147.435h30.796v34.26zm74.68-63.901c0 14.628 1.54 27.844 4.619 39.65 3.08 11.804 7.442 21.813 13.088 30.025 5.646 8.212 12.446 14.5 20.402 18.863 7.956 4.362 16.938 6.544 26.946 6.544 10.009 0 18.99-2.182 26.947-6.544 7.955-4.363 14.756-10.65 20.402-18.863 5.646-8.212 10.008-18.22 13.088-30.026 3.08-11.805 4.62-25.021 4.62-39.65 0-28.229-5.84-50.363-17.516-66.402-11.677-16.04-27.523-24.06-47.54-24.06-20.018 0-35.865 8.02-47.542 24.06-11.676 16.04-17.515 38.173-17.515 66.403zM445.762 391.27c-4.362 2.053-10.008 3.721-16.937 5.004-6.93 1.283-14.756 1.925-23.482 1.925-25.15 0-46.193-5.902-63.131-17.708-16.938-11.805-29.513-26.946-37.725-45.423-13.601-2.31-25.92-6.993-36.955-14.05-11.035-7.058-20.53-16.104-28.486-27.14-7.955-11.035-14.05-23.994-18.285-38.879-4.234-14.885-6.351-31.437-6.351-49.658 0-20.274 2.694-38.43 8.084-54.47 5.389-16.04 12.96-29.577 22.711-40.612 9.752-11.035 21.43-19.504 35.03-25.406C293.839 78.95 308.852 76 325.277 76c16.424 0 31.436 2.951 45.038 8.854 13.601 5.902 25.342 14.371 35.223 25.406 9.88 11.035 17.515 24.573 22.904 40.612 5.39 16.04 8.084 34.196 8.084 54.47 0 17.45-1.99 33.426-5.967 47.926-3.978 14.5-9.688 27.267-17.13 38.302-7.442 11.035-16.36 20.145-26.754 27.331-10.393 7.186-22.006 12.19-34.837 15.013 5.902 10.009 14.05 17.194 24.444 21.557 10.393 4.363 21.75 6.544 34.067 6.544 5.646 0 10.715-.385 15.206-1.155 4.49-.77 8.533-1.796 12.126-3.08l8.083 33.491z" fill="#000" fill-rule="evenodd"/></svg>
