
<svg width="251pt" height="356pt"
 viewBox="0.00 0.00 251.00 356.00" xmlns="http://www.w3.org/2000/svg" xmlns:xlink="http://www.w3.org/1999/xlink">
<g id="graph0" class="graph" transform="scale(1 1) rotate(0) translate(4 352)">
<title>%3</title>
<polygon fill="white" stroke="none" points="-4,4 -4,-352 247,-352 247,4 -4,4"/>
<!-- xscan -->
<g id="node1" class="node"><title>xscan</title>
<polygon fill="lightgray" stroke="lightgray" points="243.312,-348 164.688,-348 164.688,-312 243.312,-312 243.312,-348"/>
<text text-anchor="middle" x="204" y="-325.8" font-family="Times,serif" font-size="14.00">for z in [...]</text>
</g>
<!-- yscan -->
<g id="node2" class="node"><title>yscan</title>
<polygon fill="lightgray" stroke="lightgray" points="209.902,-276 130.098,-276 130.098,-240 209.902,-240 209.902,-276"/>
<text text-anchor="middle" x="170" y="-253.8" font-family="Times,serif" font-size="14.00">for x in [...]</text>
</g>
<!-- xscan&#45;&gt;yscan -->
<g id="edge1" class="edge"><title>xscan&#45;&gt;yscan</title>
<path fill="none" stroke="black" d="M195.596,-311.697C191.725,-303.728 187.048,-294.1 182.757,-285.264"/>
<polygon fill="black" stroke="black" points="185.825,-283.57 178.308,-276.104 179.529,-286.629 185.825,-283.57"/>
</g>
<!-- zscan -->
<g id="node3" class="node"><title>zscan</title>
<polygon fill="lightgray" stroke="lightgray" points="171.902,-204 92.0981,-204 92.0981,-168 171.902,-168 171.902,-204"/>
<text text-anchor="middle" x="132" y="-181.8" font-family="Times,serif" font-size="14.00">for y in [...]</text>
</g>
<!-- yscan&#45;&gt;zscan -->
<g id="edge2" class="edge"><title>yscan&#45;&gt;zscan</title>
<path fill="none" stroke="black" d="M160.607,-239.697C156.235,-231.644 150.943,-221.894 146.105,-212.982"/>
<polygon fill="black" stroke="black" points="149.132,-211.223 141.285,-204.104 142.98,-214.563 149.132,-211.223"/>
</g>
<!-- move -->
<g id="node4" class="node"><title>move</title>
<ellipse fill="lightgreen" stroke="lightgreen" cx="67" cy="-102" rx="67.1803" ry="29.3315"/>
<text text-anchor="middle" x="67" y="-106.2" font-family="Times,serif" font-size="14.00">Update Motor</text>
<text text-anchor="middle" x="67" y="-89.4" font-family="Times,serif" font-size="14.00"> Positions</text>
</g>
<!-- zscan&#45;&gt;move -->
<g id="edge3" class="edge"><title>zscan&#45;&gt;move</title>
<path fill="none" stroke="black" d="M118.215,-167.61C111.393,-159.004 102.902,-148.292 94.808,-138.081"/>
<polygon fill="black" stroke="black" points="97.3958,-135.711 88.441,-130.049 91.9102,-140.059 97.3958,-135.711"/>
</g>
<!-- scan -->
<g id="node5" class="node"><title>scan</title>
<ellipse fill="lightsteelblue" stroke="lightsteelblue" cx="181" cy="-18" rx="47.9784" ry="18"/>
<text text-anchor="middle" x="181" y="-13.8" font-family="Times,serif" font-size="14.00">Run Scan</text>
</g>
<!-- move&#45;&gt;scan -->
<g id="edge4" class="edge"><title>move&#45;&gt;scan</title>
<path fill="none" stroke="black" d="M101.204,-76.3973C117.252,-64.8542 136.186,-51.2349 151.582,-40.1603"/>
<polygon fill="black" stroke="black" points="153.657,-42.9795 159.731,-34.2989 149.569,-37.2969 153.657,-42.9795"/>
</g>
<!-- scan&#45;&gt;xscan -->
<g id="edge5" class="edge"><title>scan&#45;&gt;xscan</title>
<path fill="none" stroke="red" stroke-dasharray="5,2" d="M187.332,-35.9644C190.949,-46.2579 195.291,-59.7335 198,-72 214.228,-145.477 214.324,-164.898 219,-240 219.994,-255.969 221.199,-260.152 219,-276 217.725,-285.188 215.263,-295.022 212.696,-303.694"/>
<ellipse fill="red" stroke="red" cx="211.426" cy="-307.774" rx="4.00001" ry="4.00001"/>
</g>
<!-- scan&#45;&gt;yscan -->
<g id="edge6" class="edge"><title>scan&#45;&gt;yscan</title>
<path fill="none" stroke="red" stroke-dasharray="5,2" d="M182.166,-36.1483C184.133,-68.8831 187.315,-142.496 181,-204 180.054,-213.21 178.208,-223.18 176.293,-231.961"/>
<ellipse fill="red" stroke="red" cx="175.357" cy="-236.054" rx="4.00001" ry="4.00001"/>
</g>
<!-- scan&#45;&gt;zscan -->
<g id="edge7" class="edge"><title>scan&#45;&gt;zscan</title>
<path fill="none" stroke="red" stroke-dasharray="5,2" d="M175.895,-36.2951C167.207,-65.7274 149.513,-125.672 139.445,-159.78"/>
<ellipse fill="red" stroke="red" cx="138.192" cy="-164.024" rx="4.00001" ry="4.00001"/>
</g>
</g>
</svg>
