
<svg width="430pt" height="320pt"
 viewBox="0.00 0.00 430.21 319.65" xmlns="http://www.w3.org/2000/svg" xmlns:xlink="http://www.w3.org/1999/xlink">
<g id="graph0" class="graph" transform="scale(1 1) rotate(0) translate(4 315.655)">
<title>%3</title>
<polygon fill="white" stroke="none" points="-4,4 -4,-315.655 426.205,-315.655 426.205,4 -4,4"/>
<!-- ImageJ -->
<g id="node1" class="node"><title>ImageJ</title>
<polygon fill="none" stroke="black" points="62.4687,-259.009 5.61549,-259.009 5.61549,-223.009 62.4687,-223.009 62.4687,-259.009"/>
<text text-anchor="middle" x="34.0421" y="-236.809" font-family="Times,serif" font-size="14.00">ImageJ</text>
</g>
<!-- ShapeAnalysis -->
<g id="node2" class="node"><title>ShapeAnalysis</title>
<polygon fill="none" stroke="black" points="245.772,-311.655 146.364,-311.655 146.364,-275.655 245.772,-275.655 245.772,-311.655"/>
<text text-anchor="middle" x="196.068" y="-289.455" font-family="Times,serif" font-size="14.00">ShapeAnalysis</text>
</g>
<!-- ImageJ&#45;&gt;ShapeAnalysis -->
<g id="edge1" class="edge"><title>ImageJ&#45;&gt;ShapeAnalysis</title>
<path fill="none" stroke="black" d="M62.2648,-250.18C82.7658,-256.841 111.255,-266.098 136.679,-274.358"/>
<polygon fill="black" stroke="black" points="135.658,-277.706 146.25,-277.468 137.821,-271.049 135.658,-277.706"/>
</g>
<!-- Paraview -->
<g id="node3" class="node"><title>Paraview</title>
<polygon fill="none" stroke="black" points="68.1264,-88.6454 -0.0421521,-88.6454 -0.0421521,-52.6454 68.1264,-52.6454 68.1264,-88.6454"/>
<text text-anchor="middle" x="34.0421" y="-66.4454" font-family="Times,serif" font-size="14.00">Paraview</text>
</g>
<!-- ImageJ&#45;&gt;Paraview -->
<g id="edge2" class="edge"><title>ImageJ&#45;&gt;Paraview</title>
<path fill="none" stroke="black" d="M34.0421,-222.777C34.0421,-193.061 34.0421,-133.979 34.0421,-98.8279"/>
<polygon fill="black" stroke="black" points="37.5422,-98.7462 34.0421,-88.7462 30.5422,-98.7463 37.5422,-98.7462"/>
</g>
<!-- PythonSummary -->
<g id="node4" class="node"><title>PythonSummary</title>
<polygon fill="none" stroke="black" points="251.18,-36 140.956,-36 140.956,1.42109e-14 251.18,1.42109e-14 251.18,-36"/>
<text text-anchor="middle" x="196.068" y="-13.8" font-family="Times,serif" font-size="14.00">PythonSummary</text>
</g>
<!-- ImageJ&#45;&gt;PythonSummary -->
<g id="edge5" class="edge"><title>ImageJ&#45;&gt;PythonSummary</title>
<path fill="none" stroke="black" d="M47.3014,-222.76C75.9156,-183.375 143.556,-90.2763 176.861,-44.4363"/>
<polygon fill="black" stroke="black" points="179.806,-46.3366 182.853,-36.1892 174.143,-42.2221 179.806,-46.3366"/>
</g>
<!-- ShapeAnalysis&#45;&gt;PythonSummary -->
<g id="edge4" class="edge"><title>ShapeAnalysis&#45;&gt;PythonSummary</title>
<path fill="none" stroke="black" d="M196.068,-275.568C196.068,-228.645 196.068,-102.737 196.068,-46.1836"/>
<polygon fill="black" stroke="black" points="199.568,-46.153 196.068,-36.1531 192.568,-46.1531 199.568,-46.153"/>
</g>
<!-- MySQL -->
<g id="node5" class="node"><title>MySQL</title>
<polygon fill="none" stroke="black" points="327.092,-173.827 265.319,-173.827 265.319,-137.827 327.092,-137.827 327.092,-173.827"/>
<text text-anchor="middle" x="296.205" y="-151.627" font-family="Times,serif" font-size="14.00">MySQL</text>
</g>
<!-- ShapeAnalysis&#45;&gt;MySQL -->
<g id="edge7" class="edge"><title>ShapeAnalysis&#45;&gt;MySQL</title>
<path fill="none" stroke="black" d="M209.159,-275.636C226.476,-251.801 257.127,-209.614 277.05,-182.193"/>
<polygon fill="black" stroke="black" points="280.065,-183.998 283.111,-173.85 274.401,-179.883 280.065,-183.998"/>
</g>
<!-- Paraview&#45;&gt;PythonSummary -->
<g id="edge3" class="edge"><title>Paraview&#45;&gt;PythonSummary</title>
<path fill="none" stroke="black" d="M68.4036,-59.4806C86.6092,-53.5653 109.583,-46.1007 131.007,-39.1396"/>
<polygon fill="black" stroke="black" points="132.29,-42.403 140.719,-35.9841 130.126,-35.7456 132.29,-42.403"/>
</g>
<!-- Paraview&#45;&gt;MySQL -->
<g id="edge8" class="edge"><title>Paraview&#45;&gt;MySQL</title>
<path fill="none" stroke="black" d="M68.3154,-81.7814C116.459,-97.4244 203.969,-125.858 255.407,-142.571"/>
<polygon fill="black" stroke="black" points="254.599,-145.989 265.191,-145.75 256.762,-139.331 254.599,-145.989"/>
</g>
<!-- PythonSummary&#45;&gt;MySQL -->
<g id="edge6" class="edge"><title>PythonSummary&#45;&gt;MySQL</title>
<path fill="none" stroke="black" d="M209.159,-36.0185C226.476,-59.8535 257.127,-102.041 277.05,-129.462"/>
<polygon fill="black" stroke="black" points="274.401,-131.772 283.111,-137.804 280.065,-127.657 274.401,-131.772"/>
</g>
<!-- R -->
<g id="node6" class="node"><title>R</title>
<polygon fill="none" stroke="black" points="422.205,-173.827 368.205,-173.827 368.205,-137.827 422.205,-137.827 422.205,-173.827"/>
<text text-anchor="middle" x="395.205" y="-151.627" font-family="Times,serif" font-size="14.00">R</text>
</g>
<!-- MySQL&#45;&gt;R -->
<g id="edge9" class="edge"><title>MySQL&#45;&gt;R</title>
<path fill="none" stroke="black" d="M327.258,-155.827C336.938,-155.827 347.716,-155.827 357.784,-155.827"/>
<polygon fill="black" stroke="black" points="357.943,-159.327 367.943,-155.827 357.943,-152.327 357.943,-159.327"/>
</g>
</g>
</svg>
