
<svg width="337pt" height="356pt"
 viewBox="0.00 0.00 337.00 356.00" xmlns="http://www.w3.org/2000/svg" xmlns:xlink="http://www.w3.org/1999/xlink">
<g id="graph0" class="graph" transform="scale(1 1) rotate(0) translate(4 352)">
<title>%3</title>
<polygon fill="white" stroke="none" points="-4,4 -4,-352 333,-352 333,4 -4,4"/>
<!-- Worker 1 -->
<g id="node1" class="node"><title>Worker 1</title>
<polygon fill="lightblue" stroke="lightblue" points="68.4371,-108 -0.43712,-108 -0.43712,-72 68.4371,-72 68.4371,-108"/>
<text text-anchor="middle" x="34" y="-85.8" font-family="Times,serif" font-size="14.00">Worker 1</text>
</g>
<!-- Storage 1 -->
<g id="node5" class="node"><title>Storage 1</title>
<ellipse fill="pink" stroke="pink" cx="164" cy="-18" rx="47.1674" ry="18"/>
<text text-anchor="middle" x="164" y="-13.8" font-family="Times,serif" font-size="14.00">Storage 1</text>
</g>
<!-- Worker 1&#45;&gt;Storage 1 -->
<g id="edge7" class="edge"><title>Worker 1&#45;&gt;Storage 1</title>
<path fill="none" stroke="gray" d="M65.8016,-71.8761C85.484,-61.2778 110.718,-47.6904 130.677,-36.943"/>
<ellipse fill="gray" stroke="gray" cx="134.25" cy="-35.0192" rx="4.00002" ry="4.00002"/>
</g>
<!-- Worker 2 -->
<g id="node2" class="node"><title>Worker 2</title>
<polygon fill="lightblue" stroke="lightblue" points="155.437,-108 86.5629,-108 86.5629,-72 155.437,-72 155.437,-108"/>
<text text-anchor="middle" x="121" y="-85.8" font-family="Times,serif" font-size="14.00">Worker 2</text>
</g>
<!-- Worker 2&#45;&gt;Storage 1 -->
<g id="edge8" class="edge"><title>Worker 2&#45;&gt;Storage 1</title>
<path fill="none" stroke="gray" d="M131.629,-71.6966C137.02,-62.9212 143.648,-52.1317 149.499,-42.606"/>
<ellipse fill="gray" stroke="gray" cx="151.695" cy="-39.0306" rx="4.00002" ry="4.00002"/>
</g>
<!-- Worker 3 -->
<g id="node3" class="node"><title>Worker 3</title>
<polygon fill="lightblue" stroke="lightblue" points="242.437,-108 173.563,-108 173.563,-72 242.437,-72 242.437,-108"/>
<text text-anchor="middle" x="208" y="-85.8" font-family="Times,serif" font-size="14.00">Worker 3</text>
</g>
<!-- Worker 3&#45;&gt;Storage 1 -->
<g id="edge9" class="edge"><title>Worker 3&#45;&gt;Storage 1</title>
<path fill="none" stroke="gray" d="M197.124,-71.6966C191.608,-62.9212 184.826,-52.1317 178.838,-42.606"/>
<ellipse fill="gray" stroke="gray" cx="176.577" cy="-39.0089" rx="4.00002" ry="4.00002"/>
</g>
<!-- Worker 4 -->
<g id="node4" class="node"><title>Worker 4</title>
<polygon fill="lightblue" stroke="lightblue" points="329.437,-108 260.563,-108 260.563,-72 329.437,-72 329.437,-108"/>
<text text-anchor="middle" x="295" y="-85.8" font-family="Times,serif" font-size="14.00">Worker 4</text>
</g>
<!-- Worker 4&#45;&gt;Storage 1 -->
<g id="edge10" class="edge"><title>Worker 4&#45;&gt;Storage 1</title>
<path fill="none" stroke="gray" d="M262.954,-71.8761C243.12,-61.2778 217.692,-47.6904 197.579,-36.943"/>
<ellipse fill="gray" stroke="gray" cx="193.958" cy="-35.0079" rx="4.00002" ry="4.00002"/>
</g>
<!-- user -->
<g id="node6" class="node"><title>user</title>
<ellipse fill="none" stroke="purple" cx="164" cy="-318" rx="28.9004" ry="29.0318"/>
<text text-anchor="middle" x="164" y="-313.8" font-family="Times,serif" font-size="14.00">User</text>
</g>
<!-- driver -->
<g id="node7" class="node"><title>driver</title>
<polygon fill="lightgray" stroke="lightgray" points="191,-252 137,-252 137,-216 191,-216 191,-252"/>
<text text-anchor="middle" x="164" y="-229.8" font-family="Times,serif" font-size="14.00">Driver</text>
</g>
<!-- user&#45;&gt;driver -->
<g id="edge1" class="edge"><title>user&#45;&gt;driver</title>
<path fill="none" stroke="black" d="M164,-288.32C164,-279.877 164,-270.666 164,-262.311"/>
<polygon fill="black" stroke="black" points="167.5,-262.309 164,-252.309 160.5,-262.309 167.5,-262.309"/>
</g>
<!-- master -->
<g id="node8" class="node"><title>master</title>
<polygon fill="lightgreen" stroke="lightgreen" points="208.019,-180 119.981,-180 119.981,-144 208.019,-144 208.019,-180"/>
<text text-anchor="middle" x="164" y="-157.8" font-family="Times,serif" font-size="14.00">Master Node</text>
</g>
<!-- driver&#45;&gt;master -->
<g id="edge2" class="edge"><title>driver&#45;&gt;master</title>
<path fill="none" stroke="black" d="M164,-215.697C164,-207.983 164,-198.712 164,-190.112"/>
<polygon fill="black" stroke="black" points="167.5,-190.104 164,-180.104 160.5,-190.104 167.5,-190.104"/>
</g>
<!-- master&#45;&gt;Worker 1 -->
<g id="edge3" class="edge"><title>master&#45;&gt;Worker 1</title>
<path fill="none" stroke="gray" d="M132.198,-143.876C114.414,-134.3 92.0972,-122.283 73.2343,-112.126"/>
<ellipse fill="gray" stroke="gray" cx="69.4457" cy="-110.086" rx="4.00002" ry="4.00002"/>
</g>
<!-- master&#45;&gt;Worker 2 -->
<g id="edge4" class="edge"><title>master&#45;&gt;Worker 2</title>
<path fill="none" stroke="gray" d="M153.371,-143.697C148.059,-135.05 141.547,-124.449 135.759,-115.027"/>
<ellipse fill="gray" stroke="gray" cx="133.601" cy="-111.513" rx="4.00002" ry="4.00002"/>
</g>
<!-- master&#45;&gt;Worker 3 -->
<g id="edge5" class="edge"><title>master&#45;&gt;Worker 3</title>
<path fill="none" stroke="gray" d="M174.876,-143.697C180.311,-135.05 186.975,-124.449 192.897,-115.027"/>
<ellipse fill="gray" stroke="gray" cx="195.12" cy="-111.491" rx="4.00002" ry="4.00002"/>
</g>
<!-- master&#45;&gt;Worker 4 -->
<g id="edge6" class="edge"><title>master&#45;&gt;Worker 4</title>
<path fill="none" stroke="gray" d="M196.046,-143.876C214.047,-134.257 236.655,-122.177 255.716,-111.991"/>
<ellipse fill="gray" stroke="gray" cx="259.303" cy="-110.075" rx="4.00002" ry="4.00002"/>
</g>
</g>
</svg>
