
<svg width="247pt" height="902pt"
 viewBox="0.00 0.00 247.00 902.00" xmlns="http://www.w3.org/2000/svg" xmlns:xlink="http://www.w3.org/1999/xlink">
<g id="graph0" class="graph" transform="scale(1 1) rotate(0) translate(4 898)">
<title>%3</title>
<polygon fill="white" stroke="none" points="-4,4 -4,-898 243,-898 243,4 -4,4"/>
<!-- sil -->
<g id="node1" class="node"><title>sil</title>
<polygon fill="pink" stroke="pink" points="115,-821.68 42.8542,-697.66 187.146,-697.66 115,-821.68"/>
<text text-anchor="middle" x="115" y="-751.6" font-family="Times,serif" font-size="14.00">Spark</text>
<text text-anchor="middle" x="115" y="-734.8" font-family="Times,serif" font-size="14.00">Image</text>
<text text-anchor="middle" x="115" y="-718" font-family="Times,serif" font-size="14.00">Layer</text>
</g>
<!-- group -->
<g id="node2" class="node"><title>group</title>
<ellipse fill="steelblue" stroke="steelblue" cx="115" cy="-590" rx="58.0783" ry="29.3315"/>
<text text-anchor="middle" x="115" y="-594.2" font-family="Times,serif" font-size="14.00">Segment</text>
<text text-anchor="middle" x="115" y="-577.4" font-family="Times,serif" font-size="14.00">Superpixels</text>
</g>
<!-- sil&#45;&gt;group -->
<g id="edge1" class="edge"><title>sil&#45;&gt;group</title>
<path fill="none" stroke="black" d="M115,-697.442C115,-676.359 115,-650.717 115,-629.883"/>
<polygon fill="black" stroke="black" points="118.5,-629.781 115,-619.781 111.5,-629.781 118.5,-629.781"/>
</g>
<!-- tracks -->
<g id="node3" class="node"><title>tracks</title>
<ellipse fill="lightgreen" stroke="lightgreen" cx="51" cy="-482" rx="51.1726" ry="41.0911"/>
<text text-anchor="middle" x="51" y="-494.6" font-family="Times,serif" font-size="14.00">Segment</text>
<text text-anchor="middle" x="51" y="-477.8" font-family="Times,serif" font-size="14.00">Tissue</text>
<text text-anchor="middle" x="51" y="-461" font-family="Times,serif" font-size="14.00">Structures</text>
</g>
<!-- group&#45;&gt;tracks -->
<g id="edge2" class="edge"><title>group&#45;&gt;tracks</title>
<path fill="none" stroke="black" d="M98.5184,-561.702C92.3206,-551.437 85.0979,-539.475 78.1825,-528.021"/>
<polygon fill="black" stroke="black" points="81.1412,-526.15 72.9762,-519.398 75.1487,-529.768 81.1412,-526.15"/>
</g>
<!-- background -->
<g id="node4" class="node"><title>background</title>
<ellipse fill="lightgreen" stroke="lightgreen" cx="180" cy="-482" rx="59.5472" ry="29.3315"/>
<text text-anchor="middle" x="180" y="-486.2" font-family="Times,serif" font-size="14.00">Segment</text>
<text text-anchor="middle" x="180" y="-469.4" font-family="Times,serif" font-size="14.00">Background</text>
</g>
<!-- group&#45;&gt;background -->
<g id="edge3" class="edge"><title>group&#45;&gt;background</title>
<path fill="none" stroke="black" d="M131.739,-561.702C139.638,-548.821 149.177,-533.266 157.68,-519.398"/>
<polygon fill="black" stroke="black" points="160.848,-520.928 163.092,-510.574 154.88,-517.269 160.848,-520.928"/>
</g>
<!-- measure -->
<g id="node5" class="node"><title>measure</title>
<polygon fill="lightyellow" stroke="lightyellow" points="83.1453,-403.602 18.8547,-403.602 18.8547,-362.398 83.1453,-362.398 83.1453,-403.602"/>
<text text-anchor="middle" x="51" y="-387.2" font-family="Times,serif" font-size="14.00">Measure</text>
<text text-anchor="middle" x="51" y="-370.4" font-family="Times,serif" font-size="14.00">Position</text>
</g>
<!-- tracks&#45;&gt;measure -->
<g id="edge4" class="edge"><title>tracks&#45;&gt;measure</title>
<path fill="none" stroke="black" d="M51,-440.425C51,-431.519 51,-422.245 51,-413.851"/>
<polygon fill="black" stroke="black" points="54.5001,-413.783 51,-403.783 47.5001,-413.783 54.5001,-413.783"/>
</g>
<!-- identify -->
<g id="node6" class="node"><title>identify</title>
<polygon fill="lightyellow" stroke="lightyellow" points="211.566,-403.602 148.434,-403.602 148.434,-362.398 211.566,-362.398 211.566,-403.602"/>
<text text-anchor="middle" x="180" y="-387.2" font-family="Times,serif" font-size="14.00">Identify</text>
<text text-anchor="middle" x="180" y="-370.4" font-family="Times,serif" font-size="14.00">Features</text>
</g>
<!-- background&#45;&gt;identify -->
<g id="edge6" class="edge"><title>background&#45;&gt;identify</title>
<path fill="none" stroke="black" d="M180,-452.421C180,-440.319 180,-426.214 180,-413.965"/>
<polygon fill="black" stroke="black" points="183.5,-413.776 180,-403.776 176.5,-413.776 183.5,-413.776"/>
</g>
<!-- update -->
<g id="node8" class="node"><title>update</title>
<ellipse fill="lightgray" stroke="lightgray" cx="116" cy="-284" rx="41.3273" ry="41.0911"/>
<text text-anchor="middle" x="116" y="-296.6" font-family="Times,serif" font-size="14.00">Update</text>
<text text-anchor="middle" x="116" y="-279.8" font-family="Times,serif" font-size="14.00">Current</text>
<text text-anchor="middle" x="116" y="-263" font-family="Times,serif" font-size="14.00">Results</text>
</g>
<!-- measure&#45;&gt;update -->
<g id="edge11" class="edge"><title>measure&#45;&gt;update</title>
<path fill="none" stroke="black" d="M64.1537,-362.371C70.9655,-352.205 79.56,-339.38 87.7823,-327.109"/>
<polygon fill="black" stroke="black" points="90.7295,-328.999 93.3888,-318.743 84.9144,-325.102 90.7295,-328.999"/>
</g>
<!-- compare -->
<g id="node9" class="node"><title>compare</title>
<ellipse fill="lightgray" stroke="lightgray" cx="116" cy="-164" rx="57.1664" ry="41.0911"/>
<text text-anchor="middle" x="116" y="-176.6" font-family="Times,serif" font-size="14.00">Compare to</text>
<text text-anchor="middle" x="116" y="-159.8" font-family="Times,serif" font-size="14.00">Previous</text>
<text text-anchor="middle" x="116" y="-143" font-family="Times,serif" font-size="14.00">Scans</text>
</g>
<!-- measure&#45;&gt;compare -->
<g id="edge5" class="edge"><title>measure&#45;&gt;compare</title>
<path fill="none" stroke="black" d="M50.0421,-362.336C49.3374,-334.642 50.4045,-282.957 65,-242 69.0789,-230.554 75.212,-219.137 81.8257,-208.735"/>
<polygon fill="black" stroke="black" points="84.8395,-210.524 87.4596,-200.258 79.0096,-206.649 84.8395,-210.524"/>
</g>
<!-- identify&#45;&gt;update -->
<g id="edge9" class="edge"><title>identify&#45;&gt;update</title>
<path fill="none" stroke="black" d="M167.049,-362.371C160.465,-352.392 152.19,-339.85 144.23,-327.787"/>
<polygon fill="black" stroke="black" points="146.948,-325.55 138.519,-319.13 141.105,-329.405 146.948,-325.55"/>
</g>
<!-- identify&#45;&gt;compare -->
<g id="edge7" class="edge"><title>identify&#45;&gt;compare</title>
<path fill="none" stroke="black" d="M180.906,-362.354C181.549,-334.682 180.409,-283.023 166,-242 161.997,-230.604 155.983,-219.207 149.498,-208.809"/>
<polygon fill="black" stroke="black" points="152.366,-206.799 143.975,-200.331 146.501,-210.621 152.366,-206.799"/>
</g>
<!-- find -->
<g id="node7" class="node"><title>find</title>
<ellipse fill="yellow" stroke="yellow" cx="116" cy="-43" rx="43.3049" ry="43.4069"/>
<text text-anchor="middle" x="116" y="-47.2" font-family="Times,serif" font-size="14.00">Find</text>
<text text-anchor="middle" x="116" y="-30.4" font-family="Times,serif" font-size="14.00">Outliers</text>
</g>
<!-- update&#45;&gt;compare -->
<g id="edge10" class="edge"><title>update&#45;&gt;compare</title>
<path fill="none" stroke="black" d="M116,-242.391C116,-233.862 116,-224.763 116,-215.912"/>
<polygon fill="black" stroke="black" points="119.5,-215.684 116,-205.684 112.5,-215.684 119.5,-215.684"/>
</g>
<!-- compare&#45;&gt;find -->
<g id="edge8" class="edge"><title>compare&#45;&gt;find</title>
<path fill="none" stroke="black" d="M116,-122.38C116,-114.056 116,-105.182 116,-96.5095"/>
<polygon fill="black" stroke="black" points="119.5,-96.4656 116,-86.4656 112.5,-96.4656 119.5,-96.4656"/>
</g>
<!-- tr1 -->
<g id="node10" class="node"><title>tr1</title>
<ellipse fill="lightgrey" stroke="black" cx="115" cy="-876" rx="54.1359" ry="18"/>
<text text-anchor="middle" x="115" y="-871.8" font-family="Times,serif" font-size="14.00">Dating Site</text>
</g>
<!-- tr1&#45;&gt;sil -->
<g id="edge12" class="edge"><title>tr1&#45;&gt;sil</title>
<path fill="none" stroke="black" d="M115,-857.902C115,-850.665 115,-841.632 115,-831.807"/>
<polygon fill="black" stroke="black" points="118.5,-831.753 115,-821.753 111.5,-831.753 118.5,-831.753"/>
</g>
</g>
</svg>
